<?xml version="1.0" encoding="UTF-8" standalone="no"?>
<!-- Created with Inkscape (http://www.inkscape.org/) -->

<svg
   width="136.99991mm"
   height="200.0002mm"
   viewBox="0 0 136.99991 200.0002"
   version="1.1"
   id="svg5"
   inkscape:version="1.2.2 (1:1.2.2+202212051552+b0a8486541)"
   sodipodi:docname="Quincunx.svg"
   xmlns:inkscape="http://www.inkscape.org/namespaces/inkscape"
   xmlns:sodipodi="http://sodipodi.sourceforge.net/DTD/sodipodi-0.dtd"
   xmlns="http://www.w3.org/2000/svg"
   xmlns:svg="http://www.w3.org/2000/svg">
  <sodipodi:namedview
     id="namedview7"
     pagecolor="#ffffff"
     bordercolor="#666666"
     borderopacity="1.0"
     inkscape:showpageshadow="2"
     inkscape:pageopacity="0.0"
     inkscape:pagecheckerboard="0"
     inkscape:deskcolor="#d1d1d1"
     inkscape:document-units="mm"
     showgrid="false"
     inkscape:zoom="0.75303476"
     inkscape:cx="239.03279"
     inkscape:cy="343.27765"
     inkscape:window-width="2502"
     inkscape:window-height="1016"
     inkscape:window-x="1978"
     inkscape:window-y="27"
     inkscape:window-maximized="1"
     inkscape:current-layer="layer1"
     showguides="true" />
  <defs
     id="defs2">
    <inkscape:path-effect
       effect="fill_between_many"
       method="originald"
       linkedpaths="#path4150,0,1|#path3021,0,1|#path4143,0,1"
       id="path-effect4192"
       is_visible="true"
       lpeversion="0"
       join="true"
       close="true"
       autoreverse="true" />
    <inkscape:path-effect
       effect="fill_between_many"
       method="originald"
       linkedpaths="#path4150,0,1|#path3021,0,1|#path4143,0,1"
       id="path-effect4184"
       is_visible="true"
       lpeversion="0"
       join="true"
       close="true"
       autoreverse="true" />
    <inkscape:path-effect
       effect="fill_between_many"
       method="originald"
       linkedpaths="#path4150,0,1|#path3021,0,1|#path4143,0,1"
       id="path-effect4178"
       is_visible="true"
       lpeversion="0"
       join="true"
       close="true"
       autoreverse="true" />
    <inkscape:path-effect
       effect="fill_between_many"
       method="originald"
       linkedpaths="#path4150,0,1|#path3021,0,1|#path4143,0,1"
       id="path-effect4172"
       is_visible="true"
       lpeversion="0"
       join="true"
       close="true"
       autoreverse="true" />
    <inkscape:path-effect
       effect="fill_between_many"
       method="originald"
       linkedpaths="#path4150,0,1|#path3021,0,1|#path4143,0,1"
       id="path-effect4166"
       is_visible="true"
       lpeversion="0"
       join="true"
       close="true"
       autoreverse="true" />
    <inkscape:path-effect
       effect="fill_between_many"
       method="originald"
       linkedpaths="#path4150,0,1|#path3021,0,1|#path4143,0,1"
       id="path-effect4160"
       is_visible="true"
       lpeversion="0"
       join="true"
       close="true"
       autoreverse="true" />
    <inkscape:path-effect
       effect="fill_between_many"
       method="originald"
       linkedpaths="#path4150,0,1|#path3021,0,1|#path4143,0,1"
       id="path-effect4152"
       is_visible="true"
       lpeversion="0"
       join="true"
       close="true"
       autoreverse="true" />
    <inkscape:path-effect
       effect="fill_between_many"
       method="originald"
       linkedpaths="#path3017,0,1|#path3750,0,1|#path3824,0,1|#path3826,0,1|#path3828,0,1|#path3830,0,1|#path3832,0,1|#path3834,0,1|#path3836,0,1|#path3838,0,1|#path3917,0,1|#path4188,0,1"
       id="path-effect4202"
       is_visible="true"
       lpeversion="0"
       join="true"
       close="true"
       autoreverse="true" />
  </defs>
  <g
     inkscape:label="Laag 1"
     inkscape:groupmode="layer"
     id="layer1">
    <path
       sodipodi:type="star"
       style="opacity:0.95;fill:#000000;stroke:#404040;stroke-width:0;stroke-dasharray:none"
       id="path238"
       inkscape:flatsided="true"
       sodipodi:sides="6"
       sodipodi:cx="60.975819"
       sodipodi:cy="31.119186"
       sodipodi:r1="13.237498"
       sodipodi:r2="11.464011"
       sodipodi:arg1="-0.52359878"
       sodipodi:arg2="0"
       inkscape:rounded="0"
       inkscape:randomized="0"
       d="m 72.439828,24.500437 0,13.237498 -11.464009,6.61875 -11.46401,-6.618749 0,-13.237499 11.46401,-6.618749 z"
       transform="matrix(0.3290653,0,0,0.3290653,48.43468,44.459392)" />
    <path
       sodipodi:type="star"
       style="opacity:0.95;fill:#000000;stroke:#404040;stroke-width:0;stroke-dasharray:none"
       id="path373"
       inkscape:flatsided="true"
       sodipodi:sides="6"
       sodipodi:cx="60.975819"
       sodipodi:cy="31.119186"
       sodipodi:r1="13.237498"
       sodipodi:r2="11.464011"
       sodipodi:arg1="-0.52359878"
       sodipodi:arg2="0"
       inkscape:rounded="0"
       inkscape:randomized="0"
       d="m 72.439828,24.500437 0,13.237498 -11.464009,6.61875 -11.46401,-6.618749 0,-13.237499 11.46401,-6.618749 z"
       transform="matrix(0.3290653,0,0,0.3290653,42.659155,54.459392)" />
    <path
       sodipodi:type="star"
       style="opacity:0.95;fill:#000000;stroke:#404040;stroke-width:0;stroke-dasharray:none"
       id="path375"
       inkscape:flatsided="true"
       sodipodi:sides="6"
       sodipodi:cx="60.975819"
       sodipodi:cy="31.119186"
       sodipodi:r1="13.237498"
       sodipodi:r2="11.464011"
       sodipodi:arg1="-0.52359878"
       sodipodi:arg2="0"
       inkscape:rounded="0"
       inkscape:randomized="0"
       d="m 72.439828,24.500437 0,13.237498 -11.464009,6.61875 -11.46401,-6.618749 0,-13.237499 11.46401,-6.618749 z"
       transform="matrix(0.3290653,0,0,0.3290653,54.210544,54.459392)" />
    <path
       sodipodi:type="star"
       style="opacity:0.95;fill:#000000;stroke:#404040;stroke-width:0;stroke-dasharray:none"
       id="path1202"
       inkscape:flatsided="true"
       sodipodi:sides="6"
       sodipodi:cx="60.975819"
       sodipodi:cy="31.119186"
       sodipodi:r1="13.237498"
       sodipodi:r2="11.464011"
       sodipodi:arg1="-0.52359878"
       sodipodi:arg2="0"
       inkscape:rounded="0"
       inkscape:randomized="0"
       d="m 72.439828,24.500437 0,13.237498 -11.464009,6.61875 -11.46401,-6.618749 0,-13.237499 11.46401,-6.618749 z"
       transform="matrix(0.3290653,0,0,0.3290653,36.899283,64.43768)" />
    <path
       sodipodi:type="star"
       style="opacity:0.95;fill:#000000;stroke:#404040;stroke-width:0;stroke-dasharray:none"
       id="path1204"
       inkscape:flatsided="true"
       sodipodi:sides="6"
       sodipodi:cx="60.975819"
       sodipodi:cy="31.119186"
       sodipodi:r1="13.237498"
       sodipodi:r2="11.464011"
       sodipodi:arg1="-0.52359878"
       sodipodi:arg2="0"
       inkscape:rounded="0"
       inkscape:randomized="0"
       d="m 72.439828,24.500437 0,13.237498 -11.464009,6.61875 -11.46401,-6.618749 0,-13.237499 11.46401,-6.618749 z"
       transform="matrix(0.3290653,0,0,0.3290653,48.431229,64.43768)" />
    <path
       sodipodi:type="star"
       style="opacity:0.95;fill:#000000;stroke:#404040;stroke-width:0;stroke-dasharray:none"
       id="path1210"
       inkscape:flatsided="true"
       sodipodi:sides="6"
       sodipodi:cx="60.975819"
       sodipodi:cy="31.119186"
       sodipodi:r1="13.237498"
       sodipodi:r2="11.464011"
       sodipodi:arg1="-0.52359878"
       sodipodi:arg2="0"
       inkscape:rounded="0"
       inkscape:randomized="0"
       d="m 72.439828,24.500437 0,13.237498 -11.464009,6.61875 -11.46401,-6.618749 0,-13.237499 11.46401,-6.618749 z"
       transform="matrix(0.3290653,0,0,0.3290653,59.970527,64.43768)" />
    <path
       sodipodi:type="star"
       style="opacity:0.95;fill:#000000;stroke:#404040;stroke-width:0;stroke-dasharray:none"
       id="path1224"
       inkscape:flatsided="true"
       sodipodi:sides="6"
       sodipodi:cx="60.975819"
       sodipodi:cy="31.119186"
       sodipodi:r1="13.237498"
       sodipodi:r2="11.464011"
       sodipodi:arg1="-0.52359878"
       sodipodi:arg2="0"
       inkscape:rounded="0"
       inkscape:randomized="0"
       d="m 72.439828,24.500437 0,13.237498 -11.464009,6.61875 -11.46401,-6.618749 0,-13.237499 11.46401,-6.618749 z"
       transform="matrix(0.3290653,0,0,0.3290653,31.124976,74.43768)" />
    <path
       sodipodi:type="star"
       style="opacity:0.95;fill:#000000;stroke:#404040;stroke-width:0;stroke-dasharray:none"
       id="path1226"
       inkscape:flatsided="true"
       sodipodi:sides="6"
       sodipodi:cx="60.975819"
       sodipodi:cy="31.119186"
       sodipodi:r1="13.237498"
       sodipodi:r2="11.464011"
       sodipodi:arg1="-0.52359878"
       sodipodi:arg2="0"
       inkscape:rounded="0"
       inkscape:randomized="0"
       d="m 72.439828,24.500437 0,13.237498 -11.464009,6.61875 -11.46401,-6.618749 0,-13.237499 11.46401,-6.618749 z"
       transform="matrix(0.3290653,0,0,0.3290653,42.656922,74.43768)" />
    <path
       sodipodi:type="star"
       style="opacity:0.95;fill:#000000;stroke:#404040;stroke-width:0;stroke-dasharray:none"
       id="path1228"
       inkscape:flatsided="true"
       sodipodi:sides="6"
       sodipodi:cx="60.975819"
       sodipodi:cy="31.119186"
       sodipodi:r1="13.237498"
       sodipodi:r2="11.464011"
       sodipodi:arg1="-0.52359878"
       sodipodi:arg2="0"
       inkscape:rounded="0"
       inkscape:randomized="0"
       d="m 72.439828,24.500437 0,13.237498 -11.464009,6.61875 -11.46401,-6.618749 0,-13.237499 11.46401,-6.618749 z"
       transform="matrix(0.3290653,0,0,0.3290653,54.213776,74.43768)" />
    <path
       sodipodi:type="star"
       style="opacity:0.95;fill:#000000;stroke:#404040;stroke-width:0;stroke-dasharray:none"
       id="path1230"
       inkscape:flatsided="true"
       sodipodi:sides="6"
       sodipodi:cx="60.975819"
       sodipodi:cy="31.119186"
       sodipodi:r1="13.237498"
       sodipodi:r2="11.464011"
       sodipodi:arg1="-0.52359878"
       sodipodi:arg2="0"
       inkscape:rounded="0"
       inkscape:randomized="0"
       d="m 72.439828,24.500437 0,13.237498 -11.464009,6.61875 -11.46401,-6.618749 0,-13.237499 11.46401,-6.618749 z"
       transform="matrix(0.3290653,0,0,0.3290653,65.745722,74.43768)" />
    <path
       sodipodi:type="star"
       style="opacity:0.95;fill:#000000;stroke:#404040;stroke-width:0;stroke-dasharray:none"
       id="path1232"
       inkscape:flatsided="true"
       sodipodi:sides="6"
       sodipodi:cx="60.975819"
       sodipodi:cy="31.119186"
       sodipodi:r1="13.237498"
       sodipodi:r2="11.464011"
       sodipodi:arg1="-0.52359878"
       sodipodi:arg2="0"
       inkscape:rounded="0"
       inkscape:randomized="0"
       d="m 72.439828,24.500437 0,13.237498 -11.464009,6.61875 -11.46401,-6.618749 0,-13.237499 11.46401,-6.618749 z"
       transform="matrix(0.3290653,0,0,0.3290653,25.346359,84.43768)" />
    <path
       sodipodi:type="star"
       style="opacity:0.95;fill:#000000;stroke:#404040;stroke-width:0;stroke-dasharray:none"
       id="path1234"
       inkscape:flatsided="true"
       sodipodi:sides="6"
       sodipodi:cx="60.975819"
       sodipodi:cy="31.119186"
       sodipodi:r1="13.237498"
       sodipodi:r2="11.464011"
       sodipodi:arg1="-0.52359878"
       sodipodi:arg2="0"
       inkscape:rounded="0"
       inkscape:randomized="0"
       d="m 72.439828,24.500437 0,13.237498 -11.464009,6.61875 -11.46401,-6.618749 0,-13.237499 11.46401,-6.618749 z"
       transform="matrix(0.3290653,0,0,0.3290653,36.878305,84.43768)" />
    <path
       sodipodi:type="star"
       style="opacity:0.95;fill:#000000;stroke:#404040;stroke-width:0;stroke-dasharray:none"
       id="path1236"
       inkscape:flatsided="true"
       sodipodi:sides="6"
       sodipodi:cx="60.975819"
       sodipodi:cy="31.119186"
       sodipodi:r1="13.237498"
       sodipodi:r2="11.464011"
       sodipodi:arg1="-0.52359878"
       sodipodi:arg2="0"
       inkscape:rounded="0"
       inkscape:randomized="0"
       d="m 72.439828,24.500437 0,13.237498 -11.464009,6.61875 -11.46401,-6.618749 0,-13.237499 11.46401,-6.618749 z"
       transform="matrix(0.3290653,0,0,0.3290653,48.435159,84.43768)" />
    <path
       sodipodi:type="star"
       style="opacity:0.95;fill:#000000;stroke:#404040;stroke-width:0;stroke-dasharray:none"
       id="path1238"
       inkscape:flatsided="true"
       sodipodi:sides="6"
       sodipodi:cx="60.975819"
       sodipodi:cy="31.119186"
       sodipodi:r1="13.237498"
       sodipodi:r2="11.464011"
       sodipodi:arg1="-0.52359878"
       sodipodi:arg2="0"
       inkscape:rounded="0"
       inkscape:randomized="0"
       d="m 72.439828,24.500437 0,13.237498 -11.464009,6.61875 -11.46401,-6.618749 0,-13.237499 11.46401,-6.618749 z"
       transform="matrix(0.3290653,0,0,0.3290653,59.967105,84.43768)" />
    <path
       sodipodi:type="star"
       style="opacity:0.95;fill:#000000;stroke:#404040;stroke-width:0;stroke-dasharray:none"
       id="path1240"
       inkscape:flatsided="true"
       sodipodi:sides="6"
       sodipodi:cx="60.975819"
       sodipodi:cy="31.119186"
       sodipodi:r1="13.237498"
       sodipodi:r2="11.464011"
       sodipodi:arg1="-0.52359878"
       sodipodi:arg2="0"
       inkscape:rounded="0"
       inkscape:randomized="0"
       d="m 72.439828,24.500437 0,13.237498 -11.464009,6.61875 -11.46401,-6.618749 0,-13.237499 11.46401,-6.618749 z"
       transform="matrix(0.3290653,0,0,0.3290653,71.517108,84.43768)" />
    <path
       sodipodi:type="star"
       style="opacity:0.95;fill:#000000;stroke:#404040;stroke-width:0;stroke-dasharray:none"
       id="path1242"
       inkscape:flatsided="true"
       sodipodi:sides="6"
       sodipodi:cx="60.975819"
       sodipodi:cy="31.119186"
       sodipodi:r1="13.237498"
       sodipodi:r2="11.464011"
       sodipodi:arg1="-0.52359878"
       sodipodi:arg2="0"
       inkscape:rounded="0"
       inkscape:randomized="0"
       d="m 72.439828,24.500437 0,13.237498 -11.464009,6.61875 -11.46401,-6.618749 0,-13.237499 11.46401,-6.618749 z"
       transform="matrix(0.3290653,0,0,0.3290653,19.577222,94.43768)" />
    <path
       sodipodi:type="star"
       style="opacity:0.95;fill:#000000;stroke:#404040;stroke-width:0;stroke-dasharray:none"
       id="path1244"
       inkscape:flatsided="true"
       sodipodi:sides="6"
       sodipodi:cx="60.975819"
       sodipodi:cy="31.119186"
       sodipodi:r1="13.237498"
       sodipodi:r2="11.464011"
       sodipodi:arg1="-0.52359878"
       sodipodi:arg2="0"
       inkscape:rounded="0"
       inkscape:randomized="0"
       d="m 72.439828,24.500437 0,13.237498 -11.464009,6.61875 -11.46401,-6.618749 0,-13.237499 11.46401,-6.618749 z"
       transform="matrix(0.3290653,0,0,0.3290653,31.109168,94.43768)" />
    <path
       sodipodi:type="star"
       style="opacity:0.95;fill:#000000;stroke:#404040;stroke-width:0;stroke-dasharray:none"
       id="path1246"
       inkscape:flatsided="true"
       sodipodi:sides="6"
       sodipodi:cx="60.975819"
       sodipodi:cy="31.119186"
       sodipodi:r1="13.237498"
       sodipodi:r2="11.464011"
       sodipodi:arg1="-0.52359878"
       sodipodi:arg2="0"
       inkscape:rounded="0"
       inkscape:randomized="0"
       d="m 72.439828,24.500437 0,13.237498 -11.464009,6.61875 -11.46401,-6.618749 0,-13.237499 11.46401,-6.618749 z"
       transform="matrix(0.3290653,0,0,0.3290653,42.666022,94.43768)" />
    <path
       sodipodi:type="star"
       style="opacity:0.95;fill:#000000;stroke:#404040;stroke-width:0;stroke-dasharray:none"
       id="path1248"
       inkscape:flatsided="true"
       sodipodi:sides="6"
       sodipodi:cx="60.975819"
       sodipodi:cy="31.119186"
       sodipodi:r1="13.237498"
       sodipodi:r2="11.464011"
       sodipodi:arg1="-0.52359878"
       sodipodi:arg2="0"
       inkscape:rounded="0"
       inkscape:randomized="0"
       d="m 72.439828,24.500437 0,13.237498 -11.464009,6.61875 -11.46401,-6.618749 0,-13.237499 11.46401,-6.618749 z"
       transform="matrix(0.3290653,0,0,0.3290653,54.197968,94.43768)" />
    <path
       sodipodi:type="star"
       style="opacity:0.95;fill:#000000;stroke:#404040;stroke-width:0;stroke-dasharray:none"
       id="path1250"
       inkscape:flatsided="true"
       sodipodi:sides="6"
       sodipodi:cx="60.975819"
       sodipodi:cy="31.119186"
       sodipodi:r1="13.237498"
       sodipodi:r2="11.464011"
       sodipodi:arg1="-0.52359878"
       sodipodi:arg2="0"
       inkscape:rounded="0"
       inkscape:randomized="0"
       d="m 72.439828,24.500437 0,13.237498 -11.464009,6.61875 -11.46401,-6.618749 0,-13.237499 11.46401,-6.618749 z"
       transform="matrix(0.3290653,0,0,0.3290653,65.747971,94.43768)" />
    <path
       sodipodi:type="star"
       style="opacity:0.95;fill:#000000;stroke:#404040;stroke-width:0;stroke-dasharray:none"
       id="path1252"
       inkscape:flatsided="true"
       sodipodi:sides="6"
       sodipodi:cx="60.975819"
       sodipodi:cy="31.119186"
       sodipodi:r1="13.237498"
       sodipodi:r2="11.464011"
       sodipodi:arg1="-0.52359878"
       sodipodi:arg2="0"
       inkscape:rounded="0"
       inkscape:randomized="0"
       d="m 72.439828,24.500437 0,13.237498 -11.464009,6.61875 -11.46401,-6.618749 0,-13.237499 11.46401,-6.618749 z"
       transform="matrix(0.3290653,0,0,0.3290653,77.297758,94.43768)" />
    <path
       sodipodi:type="star"
       style="opacity:0.95;fill:#000000;stroke:#404040;stroke-width:0;stroke-dasharray:none"
       id="path1254"
       inkscape:flatsided="true"
       sodipodi:sides="6"
       sodipodi:cx="60.975819"
       sodipodi:cy="31.119186"
       sodipodi:r1="13.237498"
       sodipodi:r2="11.464011"
       sodipodi:arg1="-0.52359878"
       sodipodi:arg2="0"
       inkscape:rounded="0"
       inkscape:randomized="0"
       d="m 72.439828,24.500437 0,13.237498 -11.464009,6.61875 -11.46401,-6.618749 0,-13.237499 11.46401,-6.618749 z"
       transform="matrix(0.3290653,0,0,0.3290653,13.803949,104.43768)" />
    <path
       sodipodi:type="star"
       style="opacity:0.95;fill:#000000;stroke:#404040;stroke-width:0;stroke-dasharray:none"
       id="path1256"
       inkscape:flatsided="true"
       sodipodi:sides="6"
       sodipodi:cx="60.975819"
       sodipodi:cy="31.119186"
       sodipodi:r1="13.237498"
       sodipodi:r2="11.464011"
       sodipodi:arg1="-0.52359878"
       sodipodi:arg2="0"
       inkscape:rounded="0"
       inkscape:randomized="0"
       d="m 72.439828,24.500437 0,13.237498 -11.464009,6.61875 -11.46401,-6.618749 0,-13.237499 11.46401,-6.618749 z"
       transform="matrix(0.3290653,0,0,0.3290653,25.335895,104.43768)" />
    <path
       sodipodi:type="star"
       style="opacity:0.95;fill:#000000;stroke:#404040;stroke-width:0;stroke-dasharray:none"
       id="path1258"
       inkscape:flatsided="true"
       sodipodi:sides="6"
       sodipodi:cx="60.975819"
       sodipodi:cy="31.119186"
       sodipodi:r1="13.237498"
       sodipodi:r2="11.464011"
       sodipodi:arg1="-0.52359878"
       sodipodi:arg2="0"
       inkscape:rounded="0"
       inkscape:randomized="0"
       d="m 72.439828,24.500437 0,13.237498 -11.464009,6.61875 -11.46401,-6.618749 0,-13.237499 11.46401,-6.618749 z"
       transform="matrix(0.3290653,0,0,0.3290653,36.892749,104.43768)" />
    <path
       sodipodi:type="star"
       style="opacity:0.95;fill:#000000;stroke:#404040;stroke-width:0;stroke-dasharray:none"
       id="path1260"
       inkscape:flatsided="true"
       sodipodi:sides="6"
       sodipodi:cx="60.975819"
       sodipodi:cy="31.119186"
       sodipodi:r1="13.237498"
       sodipodi:r2="11.464011"
       sodipodi:arg1="-0.52359878"
       sodipodi:arg2="0"
       inkscape:rounded="0"
       inkscape:randomized="0"
       d="m 72.439828,24.500437 0,13.237498 -11.464009,6.61875 -11.46401,-6.618749 0,-13.237499 11.46401,-6.618749 z"
       transform="matrix(0.3290653,0,0,0.3290653,48.424695,104.43768)" />
    <path
       sodipodi:type="star"
       style="opacity:0.95;fill:#000000;stroke:#404040;stroke-width:0;stroke-dasharray:none"
       id="path1262"
       inkscape:flatsided="true"
       sodipodi:sides="6"
       sodipodi:cx="60.975819"
       sodipodi:cy="31.119186"
       sodipodi:r1="13.237498"
       sodipodi:r2="11.464011"
       sodipodi:arg1="-0.52359878"
       sodipodi:arg2="0"
       inkscape:rounded="0"
       inkscape:randomized="0"
       d="m 72.439828,24.500437 0,13.237498 -11.464009,6.61875 -11.46401,-6.618749 0,-13.237499 11.46401,-6.618749 z"
       transform="matrix(0.3290653,0,0,0.3290653,59.974698,104.43768)" />
    <path
       sodipodi:type="star"
       style="opacity:0.95;fill:#000000;stroke:#404040;stroke-width:0;stroke-dasharray:none"
       id="path1264"
       inkscape:flatsided="true"
       sodipodi:sides="6"
       sodipodi:cx="60.975819"
       sodipodi:cy="31.119186"
       sodipodi:r1="13.237498"
       sodipodi:r2="11.464011"
       sodipodi:arg1="-0.52359878"
       sodipodi:arg2="0"
       inkscape:rounded="0"
       inkscape:randomized="0"
       d="m 72.439828,24.500437 0,13.237498 -11.464009,6.61875 -11.46401,-6.618749 0,-13.237499 11.46401,-6.618749 z"
       transform="matrix(0.3290653,0,0,0.3290653,71.524268,104.43768)" />
    <path
       sodipodi:type="star"
       style="opacity:0.95;fill:#000000;stroke:#404040;stroke-width:0;stroke-dasharray:none"
       id="path1300"
       inkscape:flatsided="true"
       sodipodi:sides="6"
       sodipodi:cx="60.975819"
       sodipodi:cy="31.119186"
       sodipodi:r1="13.237498"
       sodipodi:r2="11.464011"
       sodipodi:arg1="-0.52359878"
       sodipodi:arg2="0"
       inkscape:rounded="0"
       inkscape:randomized="0"
       d="m 72.439828,24.500437 0,13.237498 -11.464009,6.61875 -11.46401,-6.618749 0,-13.237499 11.46401,-6.618749 z"
       transform="matrix(0.3290653,0,0,0.3290653,83.064038,104.43768)" />
    <path
       sodipodi:type="star"
       style="opacity:0.95;fill:#000000;stroke:#404040;stroke-width:0;stroke-dasharray:none"
       id="path1302"
       inkscape:flatsided="true"
       sodipodi:sides="6"
       sodipodi:cx="60.975819"
       sodipodi:cy="31.119186"
       sodipodi:r1="13.237498"
       sodipodi:r2="11.464011"
       sodipodi:arg1="-0.52359878"
       sodipodi:arg2="0"
       inkscape:rounded="0"
       inkscape:randomized="0"
       d="m 72.439828,24.500437 0,13.237498 -11.464009,6.61875 -11.46401,-6.618749 0,-13.237499 11.46401,-6.618749 z"
       transform="matrix(0.3290653,0,0,0.3290653,8.0306758,114.43768)" />
    <path
       sodipodi:type="star"
       style="opacity:0.95;fill:#000000;stroke:#404040;stroke-width:0;stroke-dasharray:none"
       id="path1304"
       inkscape:flatsided="true"
       sodipodi:sides="6"
       sodipodi:cx="60.975819"
       sodipodi:cy="31.119186"
       sodipodi:r1="13.237498"
       sodipodi:r2="11.464011"
       sodipodi:arg1="-0.52359878"
       sodipodi:arg2="0"
       inkscape:rounded="0"
       inkscape:randomized="0"
       d="m 72.439828,24.500437 0,13.237498 -11.464009,6.61875 -11.46401,-6.618749 0,-13.237499 11.46401,-6.618749 z"
       transform="matrix(0.3290653,0,0,0.3290653,19.562622,114.43768)" />
    <path
       sodipodi:type="star"
       style="opacity:0.95;fill:#000000;stroke:#404040;stroke-width:0;stroke-dasharray:none"
       id="path1306"
       inkscape:flatsided="true"
       sodipodi:sides="6"
       sodipodi:cx="60.975819"
       sodipodi:cy="31.119186"
       sodipodi:r1="13.237498"
       sodipodi:r2="11.464011"
       sodipodi:arg1="-0.52359878"
       sodipodi:arg2="0"
       inkscape:rounded="0"
       inkscape:randomized="0"
       d="m 72.439828,24.500437 0,13.237498 -11.464009,6.61875 -11.46401,-6.618749 0,-13.237499 11.46401,-6.618749 z"
       transform="matrix(0.3290653,0,0,0.3290653,31.119476,114.43768)" />
    <path
       sodipodi:type="star"
       style="opacity:0.95;fill:#000000;stroke:#404040;stroke-width:0;stroke-dasharray:none"
       id="path1308"
       inkscape:flatsided="true"
       sodipodi:sides="6"
       sodipodi:cx="60.975819"
       sodipodi:cy="31.119186"
       sodipodi:r1="13.237498"
       sodipodi:r2="11.464011"
       sodipodi:arg1="-0.52359878"
       sodipodi:arg2="0"
       inkscape:rounded="0"
       inkscape:randomized="0"
       d="m 72.439828,24.500437 0,13.237498 -11.464009,6.61875 -11.46401,-6.618749 0,-13.237499 11.46401,-6.618749 z"
       transform="matrix(0.3290653,0,0,0.3290653,42.651422,114.43768)" />
    <path
       sodipodi:type="star"
       style="opacity:0.95;fill:#000000;stroke:#404040;stroke-width:0;stroke-dasharray:none"
       id="path1310"
       inkscape:flatsided="true"
       sodipodi:sides="6"
       sodipodi:cx="60.975819"
       sodipodi:cy="31.119186"
       sodipodi:r1="13.237498"
       sodipodi:r2="11.464011"
       sodipodi:arg1="-0.52359878"
       sodipodi:arg2="0"
       inkscape:rounded="0"
       inkscape:randomized="0"
       d="m 72.439828,24.500437 0,13.237498 -11.464009,6.61875 -11.46401,-6.618749 0,-13.237499 11.46401,-6.618749 z"
       transform="matrix(0.3290653,0,0,0.3290653,54.201425,114.43768)" />
    <path
       sodipodi:type="star"
       style="opacity:0.95;fill:#000000;stroke:#404040;stroke-width:0;stroke-dasharray:none"
       id="path1312"
       inkscape:flatsided="true"
       sodipodi:sides="6"
       sodipodi:cx="60.975819"
       sodipodi:cy="31.119186"
       sodipodi:r1="13.237498"
       sodipodi:r2="11.464011"
       sodipodi:arg1="-0.52359878"
       sodipodi:arg2="0"
       inkscape:rounded="0"
       inkscape:randomized="0"
       d="m 72.439828,24.500437 0,13.237498 -11.464009,6.61875 -11.46401,-6.618749 0,-13.237499 11.46401,-6.618749 z"
       transform="matrix(0.3290653,0,0,0.3290653,65.750995,114.43768)" />
    <path
       sodipodi:type="star"
       style="opacity:0.95;fill:#000000;stroke:#404040;stroke-width:0;stroke-dasharray:none"
       id="path1314"
       inkscape:flatsided="true"
       sodipodi:sides="6"
       sodipodi:cx="60.975819"
       sodipodi:cy="31.119186"
       sodipodi:r1="13.237498"
       sodipodi:r2="11.464011"
       sodipodi:arg1="-0.52359878"
       sodipodi:arg2="0"
       inkscape:rounded="0"
       inkscape:randomized="0"
       d="m 72.439828,24.500437 0,13.237498 -11.464009,6.61875 -11.46401,-6.618749 0,-13.237499 11.46401,-6.618749 z"
       transform="matrix(0.3290653,0,0,0.3290653,77.290548,114.43768)" />
    <path
       sodipodi:type="star"
       style="opacity:0.95;fill:#000000;stroke:#404040;stroke-width:0;stroke-dasharray:none"
       id="path1316"
       inkscape:flatsided="true"
       sodipodi:sides="6"
       sodipodi:cx="60.975819"
       sodipodi:cy="31.119186"
       sodipodi:r1="13.237498"
       sodipodi:r2="11.464011"
       sodipodi:arg1="-0.52359878"
       sodipodi:arg2="0"
       inkscape:rounded="0"
       inkscape:randomized="0"
       d="m 72.439828,24.500437 0,13.237498 -11.464009,6.61875 -11.46401,-6.618749 0,-13.237499 11.46401,-6.618749 z"
       transform="matrix(0.3290653,0,0,0.3290653,88.837527,114.43768)" />
    <path
       sodipodi:type="star"
       style="opacity:0.95;fill:#000000;stroke:#404040;stroke-width:0;stroke-dasharray:none"
       id="path1318"
       inkscape:flatsided="true"
       sodipodi:sides="6"
       sodipodi:cx="60.975819"
       sodipodi:cy="31.119186"
       sodipodi:r1="13.237498"
       sodipodi:r2="11.464011"
       sodipodi:arg1="-0.52359878"
       sodipodi:arg2="0"
       inkscape:rounded="0"
       inkscape:randomized="0"
       d="m 72.439828,24.500437 0,13.237498 -11.464009,6.61875 -11.46401,-6.618749 0,-13.237499 11.46401,-6.618749 z"
       transform="matrix(0.3290653,0,0,0.3290653,2.2574028,124.43768)" />
    <path
       sodipodi:type="star"
       style="opacity:0.95;fill:#000000;stroke:#404040;stroke-width:0;stroke-dasharray:none"
       id="path1320"
       inkscape:flatsided="true"
       sodipodi:sides="6"
       sodipodi:cx="60.975819"
       sodipodi:cy="31.119186"
       sodipodi:r1="13.237498"
       sodipodi:r2="11.464011"
       sodipodi:arg1="-0.52359878"
       sodipodi:arg2="0"
       inkscape:rounded="0"
       inkscape:randomized="0"
       d="m 72.439828,24.500437 0,13.237498 -11.464009,6.61875 -11.46401,-6.618749 0,-13.237499 11.46401,-6.618749 z"
       transform="matrix(0.3290653,0,0,0.3290653,13.789349,124.43768)" />
    <path
       sodipodi:type="star"
       style="opacity:0.95;fill:#000000;stroke:#404040;stroke-width:0;stroke-dasharray:none"
       id="path1322"
       inkscape:flatsided="true"
       sodipodi:sides="6"
       sodipodi:cx="60.975819"
       sodipodi:cy="31.119186"
       sodipodi:r1="13.237498"
       sodipodi:r2="11.464011"
       sodipodi:arg1="-0.52359878"
       sodipodi:arg2="0"
       inkscape:rounded="0"
       inkscape:randomized="0"
       d="m 72.439828,24.500437 0,13.237498 -11.464009,6.61875 -11.46401,-6.618749 0,-13.237499 11.46401,-6.618749 z"
       transform="matrix(0.3290653,0,0,0.3290653,25.346203,124.43768)" />
    <path
       sodipodi:type="star"
       style="opacity:0.95;fill:#000000;stroke:#404040;stroke-width:0;stroke-dasharray:none"
       id="path1324"
       inkscape:flatsided="true"
       sodipodi:sides="6"
       sodipodi:cx="60.975819"
       sodipodi:cy="31.119186"
       sodipodi:r1="13.237498"
       sodipodi:r2="11.464011"
       sodipodi:arg1="-0.52359878"
       sodipodi:arg2="0"
       inkscape:rounded="0"
       inkscape:randomized="0"
       d="m 72.439828,24.500437 0,13.237498 -11.464009,6.61875 -11.46401,-6.618749 0,-13.237499 11.46401,-6.618749 z"
       transform="matrix(0.3290653,0,0,0.3290653,36.878149,124.43768)" />
    <path
       sodipodi:type="star"
       style="opacity:0.95;fill:#000000;stroke:#404040;stroke-width:0;stroke-dasharray:none"
       id="path1326"
       inkscape:flatsided="true"
       sodipodi:sides="6"
       sodipodi:cx="60.975819"
       sodipodi:cy="31.119186"
       sodipodi:r1="13.237498"
       sodipodi:r2="11.464011"
       sodipodi:arg1="-0.52359878"
       sodipodi:arg2="0"
       inkscape:rounded="0"
       inkscape:randomized="0"
       d="m 72.439828,24.500437 0,13.237498 -11.464009,6.61875 -11.46401,-6.618749 0,-13.237499 11.46401,-6.618749 z"
       transform="matrix(0.3290653,0,0,0.3290653,48.428152,124.43768)" />
    <path
       sodipodi:type="star"
       style="opacity:0.95;fill:#000000;stroke:#404040;stroke-width:0;stroke-dasharray:none"
       id="path1328"
       inkscape:flatsided="true"
       sodipodi:sides="6"
       sodipodi:cx="60.975819"
       sodipodi:cy="31.119186"
       sodipodi:r1="13.237498"
       sodipodi:r2="11.464011"
       sodipodi:arg1="-0.52359878"
       sodipodi:arg2="0"
       inkscape:rounded="0"
       inkscape:randomized="0"
       d="m 72.439828,24.500437 0,13.237498 -11.464009,6.61875 -11.46401,-6.618749 0,-13.237499 11.46401,-6.618749 z"
       transform="matrix(0.3290653,0,0,0.3290653,59.977722,124.43768)" />
    <path
       sodipodi:type="star"
       style="opacity:0.95;fill:#000000;stroke:#404040;stroke-width:0;stroke-dasharray:none"
       id="path1330"
       inkscape:flatsided="true"
       sodipodi:sides="6"
       sodipodi:cx="60.975819"
       sodipodi:cy="31.119186"
       sodipodi:r1="13.237498"
       sodipodi:r2="11.464011"
       sodipodi:arg1="-0.52359878"
       sodipodi:arg2="0"
       inkscape:rounded="0"
       inkscape:randomized="0"
       d="m 72.439828,24.500437 0,13.237498 -11.464009,6.61875 -11.46401,-6.618749 0,-13.237499 11.46401,-6.618749 z"
       transform="matrix(0.3290653,0,0,0.3290653,71.517058,124.43768)" />
    <path
       sodipodi:type="star"
       style="opacity:0.95;fill:#000000;stroke:#404040;stroke-width:0;stroke-dasharray:none"
       id="path1332"
       inkscape:flatsided="true"
       sodipodi:sides="6"
       sodipodi:cx="60.975819"
       sodipodi:cy="31.119186"
       sodipodi:r1="13.237498"
       sodipodi:r2="11.464011"
       sodipodi:arg1="-0.52359878"
       sodipodi:arg2="0"
       inkscape:rounded="0"
       inkscape:randomized="0"
       d="m 72.439828,24.500437 0,13.237498 -11.464009,6.61875 -11.46401,-6.618749 0,-13.237499 11.46401,-6.618749 z"
       transform="matrix(0.3290653,0,0,0.3290653,83.064038,124.43768)" />
    <path
       sodipodi:type="star"
       style="opacity:0.95;fill:#000000;stroke:#404040;stroke-width:0;stroke-dasharray:none"
       id="path1334"
       inkscape:flatsided="true"
       sodipodi:sides="6"
       sodipodi:cx="60.975819"
       sodipodi:cy="31.119186"
       sodipodi:r1="13.237498"
       sodipodi:r2="11.464011"
       sodipodi:arg1="-0.52359878"
       sodipodi:arg2="0"
       inkscape:rounded="0"
       inkscape:randomized="0"
       d="m 72.439828,24.500437 0,13.237498 -11.464009,6.61875 -11.46401,-6.618749 0,-13.237499 11.46401,-6.618749 z"
       transform="matrix(0.3290653,0,0,0.3290653,94.612047,124.43768)" />
    <path
       class="UnoptimicedTransforms"
       inkscape:original-d="M 0,0"
       inkscape:path-effect="#path-effect4202"
       d="M 0,0"
       id="path4204"
       style="fill:#000000;stroke-width:0;stroke-dasharray:none" />
    <path
       style="fill:#000000;stroke:#000000;stroke-width:0;stroke-linecap:butt;stroke-linejoin:miter;stroke-dasharray:none;stroke-opacity:1"
       d="M 4.991,26.757 4.989,149.679"
       id="path4150"
       sodipodi:nodetypes="cc" />
    <path
       sodipodi:type="star"
       style="opacity:0.95;fill:#000000;stroke:#404040;stroke-width:0;stroke-dasharray:none"
       id="path17122"
       inkscape:flatsided="true"
       sodipodi:sides="6"
       sodipodi:cx="60.975819"
       sodipodi:cy="31.119186"
       sodipodi:r1="13.237498"
       sodipodi:r2="11.464011"
       sodipodi:arg1="-0.52359878"
       sodipodi:arg2="0"
       inkscape:rounded="0"
       inkscape:randomized="0"
       d="m 72.439828,24.500437 0,13.237498 -11.464009,6.61875 -11.46401,-6.618749 0,-13.237499 11.46401,-6.618749 z"
       transform="matrix(0.3290653,0,0,0.3290653,88.839808,134.43804)" />
    <path
       sodipodi:type="star"
       style="opacity:0.95;fill:#000000;stroke:#404040;stroke-width:0;stroke-dasharray:none"
       id="path17128"
       inkscape:flatsided="true"
       sodipodi:sides="6"
       sodipodi:cx="60.975819"
       sodipodi:cy="31.119186"
       sodipodi:r1="13.237498"
       sodipodi:r2="11.464011"
       sodipodi:arg1="-0.52359878"
       sodipodi:arg2="0"
       inkscape:rounded="0"
       inkscape:randomized="0"
       d="m 72.439828,24.500437 0,13.237498 -11.464009,6.61875 -11.46401,-6.618749 0,-13.237499 11.46401,-6.618749 z"
       transform="matrix(0.3290653,0,0,0.3290653,100.38325,134.43804)" />
    <path
       sodipodi:type="star"
       style="opacity:0.95;fill:#000000;stroke:#404040;stroke-width:0;stroke-dasharray:none"
       id="path17106"
       inkscape:flatsided="true"
       sodipodi:sides="6"
       sodipodi:cx="60.975819"
       sodipodi:cy="31.119186"
       sodipodi:r1="13.237498"
       sodipodi:r2="11.464011"
       sodipodi:arg1="-0.52359878"
       sodipodi:arg2="0"
       inkscape:rounded="0"
       inkscape:randomized="0"
       d="m 72.439828,24.500437 0,13.237498 -11.464009,6.61875 -11.46401,-6.618749 0,-13.237499 11.46401,-6.618749 z"
       transform="matrix(0.3290653,0,0,0.3290653,-3.5148563,134.43804)" />
    <path
       sodipodi:type="star"
       style="opacity:0.95;fill:#000000;stroke:#404040;stroke-width:0;stroke-dasharray:none"
       id="path17108"
       inkscape:flatsided="true"
       sodipodi:sides="6"
       sodipodi:cx="60.975819"
       sodipodi:cy="31.119186"
       sodipodi:r1="13.237498"
       sodipodi:r2="11.464011"
       sodipodi:arg1="-0.52359878"
       sodipodi:arg2="0"
       inkscape:rounded="0"
       inkscape:randomized="0"
       d="m 72.439828,24.500437 0,13.237498 -11.464009,6.61875 -11.46401,-6.618749 0,-13.237499 11.46401,-6.618749 z"
       transform="matrix(0.3290653,0,0,0.3290653,8.0170898,134.43804)" />
    <path
       sodipodi:type="star"
       style="opacity:0.95;fill:#000000;stroke:#404040;stroke-width:0;stroke-dasharray:none"
       id="path17110"
       inkscape:flatsided="true"
       sodipodi:sides="6"
       sodipodi:cx="60.975819"
       sodipodi:cy="31.119186"
       sodipodi:r1="13.237498"
       sodipodi:r2="11.464011"
       sodipodi:arg1="-0.52359878"
       sodipodi:arg2="0"
       inkscape:rounded="0"
       inkscape:randomized="0"
       d="m 72.439828,24.500437 0,13.237498 -11.464009,6.61875 -11.46401,-6.618749 0,-13.237499 11.46401,-6.618749 z"
       transform="matrix(0.3290653,0,0,0.3290653,19.573964,134.43804)" />
    <path
       sodipodi:type="star"
       style="opacity:0.95;fill:#000000;stroke:#404040;stroke-width:0;stroke-dasharray:none"
       id="path17112"
       inkscape:flatsided="true"
       sodipodi:sides="6"
       sodipodi:cx="60.975819"
       sodipodi:cy="31.119186"
       sodipodi:r1="13.237498"
       sodipodi:r2="11.464011"
       sodipodi:arg1="-0.52359878"
       sodipodi:arg2="0"
       inkscape:rounded="0"
       inkscape:randomized="0"
       d="m 72.439828,24.500437 0,13.237498 -11.464009,6.61875 -11.46401,-6.618749 0,-13.237499 11.46401,-6.618749 z"
       transform="matrix(0.3290653,0,0,0.3290653,31.10591,134.43804)" />
    <path
       sodipodi:type="star"
       style="opacity:0.95;fill:#000000;stroke:#404040;stroke-width:0;stroke-dasharray:none"
       id="path17114"
       inkscape:flatsided="true"
       sodipodi:sides="6"
       sodipodi:cx="60.975819"
       sodipodi:cy="31.119186"
       sodipodi:r1="13.237498"
       sodipodi:r2="11.464011"
       sodipodi:arg1="-0.52359878"
       sodipodi:arg2="0"
       inkscape:rounded="0"
       inkscape:randomized="0"
       d="m 72.439828,24.500437 0,13.237498 -11.464009,6.61875 -11.46401,-6.618749 0,-13.237499 11.46401,-6.618749 z"
       transform="matrix(0.3290653,0,0,0.3290653,42.655913,134.43804)" />
    <path
       sodipodi:type="star"
       style="opacity:0.95;fill:#000000;stroke:#404040;stroke-width:0;stroke-dasharray:none"
       id="path17116"
       inkscape:flatsided="true"
       sodipodi:sides="6"
       sodipodi:cx="60.975819"
       sodipodi:cy="31.119186"
       sodipodi:r1="13.237498"
       sodipodi:r2="11.464011"
       sodipodi:arg1="-0.52359878"
       sodipodi:arg2="0"
       inkscape:rounded="0"
       inkscape:randomized="0"
       d="m 72.439828,24.500437 0,13.237498 -11.464009,6.61875 -11.46401,-6.618749 0,-13.237499 11.46401,-6.618749 z"
       transform="matrix(0.3290653,0,0,0.3290653,54.205483,134.43804)" />
    <path
       sodipodi:type="star"
       style="opacity:0.95;fill:#000000;stroke:#404040;stroke-width:0;stroke-dasharray:none"
       id="path17118"
       inkscape:flatsided="true"
       sodipodi:sides="6"
       sodipodi:cx="60.975819"
       sodipodi:cy="31.119186"
       sodipodi:r1="13.237498"
       sodipodi:r2="11.464011"
       sodipodi:arg1="-0.52359878"
       sodipodi:arg2="0"
       inkscape:rounded="0"
       inkscape:randomized="0"
       d="m 72.439828,24.500437 0,13.237498 -11.464009,6.61875 -11.46401,-6.618749 0,-13.237499 11.46401,-6.618749 z"
       transform="matrix(0.3290653,0,0,0.3290653,65.744819,134.43804)" />
    <path
       sodipodi:type="star"
       style="opacity:0.95;fill:#000000;stroke:#404040;stroke-width:0;stroke-dasharray:none"
       id="path17120"
       inkscape:flatsided="true"
       sodipodi:sides="6"
       sodipodi:cx="60.975819"
       sodipodi:cy="31.119186"
       sodipodi:r1="13.237498"
       sodipodi:r2="11.464011"
       sodipodi:arg1="-0.52359878"
       sodipodi:arg2="0"
       inkscape:rounded="0"
       inkscape:randomized="0"
       d="m 72.439828,24.500437 0,13.237498 -11.464009,6.61875 -11.46401,-6.618749 0,-13.237499 11.46401,-6.618749 z"
       transform="matrix(0.3290653,0,0,0.3290653,77.291799,134.43804)" />
    <path
       style="fill:#000000;stroke:#000000;stroke-width:0;stroke-linecap:butt;stroke-linejoin:miter;stroke-dasharray:none;stroke-opacity:1"
       d="m 16.311944,146.41574 h 1.698651 v 48.52867 h -2.909149 v -48.52867 z"
       id="path1122" />
    <path
       style="fill:#000000;stroke:#000000;stroke-width:0;stroke-linecap:butt;stroke-linejoin:miter;stroke-dasharray:none;stroke-opacity:1"
       d="m 27.844014,146.41574 h 1.698651 v 48.53606 h -2.909149 v -48.53606 z"
       id="path1124" />
    <path
       style="fill:#000000;stroke:#000000;stroke-width:0;stroke-linecap:butt;stroke-linejoin:miter;stroke-dasharray:none;stroke-opacity:1"
       d="m 39.376084,146.41574 h 1.698651 v 48.53606 h -2.909149 v -48.53606 z"
       id="path1126" />
    <path
       style="fill:#000000;stroke:#000000;stroke-width:0;stroke-linecap:butt;stroke-linejoin:miter;stroke-dasharray:none;stroke-opacity:1"
       d="m 50.932687,146.42274 h 1.698651 v 48.53606 h -2.909149 v -48.53606 z"
       id="path1128" />
    <path
       style="fill:#000000;stroke:#000000;stroke-width:0;stroke-linecap:butt;stroke-linejoin:miter;stroke-dasharray:none;stroke-opacity:1"
       d="m 62.46504,146.41574 h 1.698651 v 48.53606 h -2.909149 v -48.53606 z"
       id="path1130" />
    <path
       style="fill:#000000;stroke:#000000;stroke-width:0;stroke-linecap:butt;stroke-linejoin:miter;stroke-dasharray:none;stroke-opacity:1"
       d="m 74.01524,146.40468 h 1.698651 v 48.53606 h -2.909149 v -48.53606 z"
       id="path1132" />
    <path
       style="fill:#000000;stroke:#000000;stroke-width:0;stroke-linecap:butt;stroke-linejoin:miter;stroke-dasharray:none;stroke-opacity:1"
       d="m 85.564577,146.41574 h 1.698651 v 48.53606 h -2.909149 v -48.53606 z"
       id="path1134" />
    <path
       style="fill:#000000;stroke:#000000;stroke-width:0;stroke-linecap:butt;stroke-linejoin:miter;stroke-dasharray:none;stroke-opacity:1"
       d="m 97.103885,146.41574 h 1.698651 v 48.53606 h -2.909149 v -48.53606 z"
       id="path1136" />
    <path
       style="fill:#000000;stroke:#000000;stroke-width:0;stroke-linecap:butt;stroke-linejoin:miter;stroke-dasharray:none;stroke-opacity:1"
       d="m 108.65048,146.41768 h 1.69866 v 48.53606 h -2.90916 v -48.53606 z"
       id="path1138" />
    <path
       style="fill:#000000;stroke:#000000;stroke-width:0;stroke-linecap:butt;stroke-linejoin:miter;stroke-dasharray:none;stroke-opacity:1"
       d="m 120.19814,146.44099 h 1.69866 v 48.53606 h -2.90916 v -48.53606 z"
       id="path1140" />
    <path
       id="path1142"
       style="fill:#000000;stroke:#000000;stroke-width:0;stroke-linecap:butt;stroke-linejoin:miter;stroke-dasharray:none;stroke-opacity:1"
       d="M 6.6047648 0 C 2.9457185 0 -1.8799758e-15 3.794001 0 8.5069743 L 0 191.4927 C 0 196.20568 2.9457185 200.0002 6.6047648 200.0002 L 130.39514 200.0002 C 134.05421 200.0002 136.99991 196.20568 136.99991 191.4927 L 136.99991 8.5069743 C 136.99991 3.794001 134.05421 1.2533172e-15 130.39514 0 L 6.6047648 0 z M 11.114567 5.0849609 L 125.88689 5.0849609 C 127.9713 5.0849609 129.80316 6.2614025 130.90829 8.062557 L 74.297274 40.334489 L 74.27557 40.322087 L 70.87526 42.285274 L 70.501123 42.498698 L 70.50319 42.502315 L 70.50319 46.856055 L 74.27557 49.034216 L 74.276086 49.0337 L 76.284233 52.509456 L 76.263045 52.521859 L 76.263045 56.877665 L 80.035425 59.055827 L 80.058162 59.042908 L 82.060624 62.508846 L 82.038403 62.521765 L 82.038403 66.877572 L 85.810783 69.055733 L 85.834554 69.041781 L 87.826681 72.490149 L 87.809627 72.499967 L 87.809627 76.855774 L 91.582007 79.033936 L 91.60061 79.023083 L 93.604106 82.491606 L 93.590153 82.499874 L 93.590153 86.85568 L 97.362533 89.033842 L 97.378035 89.025057 L 99.37843 92.487378 L 99.356726 92.49978 L 99.356726 96.856104 L 103.12911 99.033748 L 103.15236 99.020312 L 105.15431 102.48573 L 105.13002 102.49969 L 105.13002 106.85601 L 108.9024 109.03417 L 108.92823 109.01919 L 110.9307 112.48512 L 110.90486 112.50011 L 110.90486 116.85592 L 114.67724 119.03408 L 114.70463 119.01806 L 116.70605 122.48296 L 116.67608 122.50002 L 116.67608 126.85582 L 120.44846 129.03398 L 120.47998 129.0159 L 122.48245 132.48287 L 122.45299 132.49992 L 122.45299 136.85573 L 126.22537 139.03389 L 126.25689 139.0158 L 128.25729 142.47864 L 128.22008 142.50035 L 128.22008 146.85615 L 130.55637 148.20491 L 130.55637 195.01394 L 132.009 195.01394 L 132.009 149.02501 L 132.01055 149.02398 L 132.01055 195.01652 L 4.9909098 194.94314 L 4.9909098 149.03328 L 4.9940104 149.02811 L 4.9940104 194.93384 L 6.4450846 194.93384 L 6.4450846 148.21059 L 8.7906779 146.85615 L 8.7906779 142.50035 L 8.7694906 142.48794 L 10.770402 139.02252 L 10.790556 139.03389 L 14.562935 136.85573 L 14.562935 132.49992 L 14.542782 132.48804 L 16.540592 129.0283 L 16.550411 129.03398 L 20.322791 126.85582 L 20.322791 122.50002 L 20.312455 122.49433 L 22.313367 119.02891 L 22.322668 119.03408 L 26.095048 116.85592 L 26.095048 112.50011 L 26.085746 112.49443 L 28.086658 109.02849 L 28.095959 109.03417 L 31.868339 106.85601 L 31.868339 102.49969 L 31.859037 102.49452 L 33.859949 99.028581 L 33.868734 99.033748 L 37.64163 96.856104 L 37.64163 92.49978 L 37.632328 92.494096 L 39.632723 89.028674 L 39.642025 89.033842 L 43.414404 86.85568 L 43.414404 82.499874 L 43.405103 82.494706 L 45.40498 79.030318 L 45.411182 79.033936 L 49.183561 76.855774 L 49.183561 72.499967 L 49.17736 72.49635 L 51.17052 69.044364 L 51.190157 69.055733 L 54.962537 66.877572 L 54.962537 62.521765 L 54.942383 62.510396 L 56.943811 59.043941 L 56.964482 59.055827 L 60.736861 56.877665 L 60.736861 52.521859 L 60.716191 52.509973 L 62.722786 49.0337 L 62.724337 49.034216 L 66.496716 46.856055 L 66.496716 42.500248 L 66.495166 42.499215 L 66.495683 42.498698 L 66.365458 42.424801 L 62.724337 40.322087 L 62.701082 40.335522 L 6.0921346 8.064624 C 7.1970005 6.2624657 9.0293995 5.0849609 11.114567 5.0849609 z " />
  </g>
</svg>
