<?xml version="1.0" encoding="UTF-8" standalone="no"?>
<svg
   width="137.10001mm"
   height="200.10001mm"
   viewBox="-252 -101 137.10001 200.10001"
   version="1.1"
   id="svg8"
   sodipodi:docname="Quincunx bottom.svg"
   inkscape:version="1.2.2 (1:1.2.2+202212051552+b0a8486541)"
   xmlns:inkscape="http://www.inkscape.org/namespaces/inkscape"
   xmlns:sodipodi="http://sodipodi.sourceforge.net/DTD/sodipodi-0.dtd"
   xmlns="http://www.w3.org/2000/svg"
   xmlns:svg="http://www.w3.org/2000/svg"
   xmlns:rdf="http://www.w3.org/1999/02/22-rdf-syntax-ns#"
   xmlns:cc="http://creativecommons.org/ns#"
   xmlns:dc="http://purl.org/dc/elements/1.1/">
  <defs
     id="defs12" />
  <sodipodi:namedview
     id="namedview10"
     pagecolor="#ffffff"
     bordercolor="#666666"
     borderopacity="1.0"
     inkscape:showpageshadow="2"
     inkscape:pageopacity="0.0"
     inkscape:pagecheckerboard="0"
     inkscape:deskcolor="#d1d1d1"
     inkscape:document-units="mm"
     showgrid="false"
     inkscape:zoom="0.8264339"
     inkscape:cx="270.43905"
     inkscape:cy="457.99186"
     inkscape:window-width="2502"
     inkscape:window-height="1016"
     inkscape:window-x="1978"
     inkscape:window-y="27"
     inkscape:window-maximized="1"
     inkscape:current-layer="svg8" />
  <title
     id="title2">svgOutput</title>
  <desc
     id="desc4">made with tinkercad</desc>
  <path
     d="m -117.514,-99.182002 0.634,0.718002 0.557,0.816002 0.474,0.904999 0.382,0.982002 0.21814,0.812996 0.0639,0.237999 0.175,1.11 0.06,1.157006 V -0.95 90.542996 l -0.06,1.157006 -0.175,1.109001 -0.282,1.050995 -0.382,0.983001 -0.474,0.904 -0.557,0.817001 -0.43179,0.488998 -0.20221,0.229004 -0.702,0.610001 -0.763,0.490997 -0.816,0.363999 -0.861,0.225998 -0.899,0.077 h -2.398 -8.06901 -112.931 -0.39199 l -0.89901,-0.077 -0.86099,-0.225998 -0.81599,-0.363999 -0.763,-0.490997 -0.70201,-0.610001 -0.63401,-0.718002 -0.55699,-0.817001 -0.474,-0.904 -0.382,-0.983001 -0.282,-1.050995 -0.175,-1.109001 -0.06,-1.157006 V -0.95 -92.442996 l 0.06,-1.157006 0.175,-1.11 0.282,-1.050995 0.382,-0.982002 0.474,-0.904999 0.55699,-0.816002 0.63401,-0.718002 0.43299,-0.376251 0.26902,-0.23375 0.763,-0.491997 0.81599,-0.363 0.157,-0.0412 0.70399,-0.18478 0.89901,-0.077 h 113.32299 10.46701 l 0.899,0.077 0.703,0.18452 0.158,0.0415 0.816,0.363 0.763,0.491998 0.268,0.23288 0.434,0.377121 m -1.746,4.185005 0.31,0.049 0.31,-0.049 0.279,-0.142006 0.019,-0.019 0.203,-0.203003 0.142,-0.278999 0.049,-0.309998 -0.049,-0.309998 -0.142,-0.278999 -0.222,-0.222 -0.279,-0.142006 -0.31,-0.05 -0.31,0.05 -0.279,0.142006 -0.195,0.195 -0.027,0.027 -0.142,0.278999 -0.05,0.309998 0.05,0.309998 0.142,0.278999 0.027,0.027 0.176,0.176003 0.019,0.019 0.279,0.142006 m -129,0 0.31,0.049 0.31,-0.049 0.279,-0.142006 0.019,-0.019 0.203,-0.203003 0.142,-0.278999 0.049,-0.309998 -0.049,-0.309998 -0.142,-0.278999 -0.222,-0.222 -0.279,-0.142006 -0.31,-0.05 -0.31,0.05 -0.279,0.142006 -0.219,0.218994 -0.003,0.003 -0.142,0.278999 -0.05,0.309998 0.05,0.309998 0.142,0.278999 0.003,0.003 0.2,0.199997 0.019,0.019 0.279,0.142006 m 124.35696,190.73701 -0.05,0.309998 0.05,0.309998 0.073,0.143432 0.069,0.135567 0.222,0.222 0.279,0.142006 0.31,0.05 0.31,-0.05 0.279,-0.142006 0.222,-0.222 0.142,-0.278999 0.049,-0.309998 -0.049,-0.309998 -0.142,-0.278999 -0.155,-0.155006 -0.067,-0.06699 -0.279,-0.142006 -0.31,-0.049 -0.31,0.049 -0.279,0.142006 -0.067,0.06699 -0.155,0.155006 -0.069,0.135567 -0.073,0.143432 m -120.858,0.898995 0.099,0.09901 0.12301,0.122993 0.279,0.142006 0.31,0.05 0.31,-0.05 0.279,-0.142006 0.222,-0.222 0.142,-0.278999 0.049,-0.309998 -0.049,-0.309998 -0.142,-0.278999 -0.15499,-0.155006 -0.067,-0.06699 -0.279,-0.142006 -0.31,-0.049 -0.31,0.049 -0.279,0.142006 -0.067,0.06699 -0.056,0.056 -0.099,0.09901 -0.142,0.278999 -0.05,0.309998 0.05,0.309998 z"
     fill="none"
     stroke="rgb(255,0,0)"
     stroke-width="0.001mm"
     id="path6"
     style="stroke:#000000;stroke-width:0.1;stroke-dasharray:none" />
  <metadata
     id="metadata14">
    <rdf:RDF>
      <cc:Work
         rdf:about="">
        <dc:title>svgOutput</dc:title>
      </cc:Work>
    </rdf:RDF>
  </metadata>
</svg>
