<?xml version="1.0" encoding="UTF-8" standalone="no"?>
<!-- Created with Inkscape (http://www.inkscape.org/) -->

<svg
   width="136.99991mm"
   height="200.0002mm"
   viewBox="0 0 136.99991 200.0002"
   version="1.1"
   id="svg5"
   inkscape:version="1.2.2 (1:1.2.2+202212051552+b0a8486541)"
   sodipodi:docname="quincunx.svg"
   xmlns:inkscape="http://www.inkscape.org/namespaces/inkscape"
   xmlns:sodipodi="http://sodipodi.sourceforge.net/DTD/sodipodi-0.dtd"
   xmlns="http://www.w3.org/2000/svg"
   xmlns:svg="http://www.w3.org/2000/svg">
  <sodipodi:namedview
     id="namedview7"
     pagecolor="#ffffff"
     bordercolor="#666666"
     borderopacity="1.0"
     inkscape:showpageshadow="2"
     inkscape:pageopacity="0.0"
     inkscape:pagecheckerboard="0"
     inkscape:deskcolor="#d1d1d1"
     inkscape:document-units="mm"
     showgrid="false"
     inkscape:zoom="1.0679211"
     inkscape:cx="-142.80082"
     inkscape:cy="85.680491"
     inkscape:window-width="2502"
     inkscape:window-height="1016"
     inkscape:window-x="1978"
     inkscape:window-y="27"
     inkscape:window-maximized="1"
     inkscape:current-layer="layer1"
     showguides="true" />
  <defs
     id="defs2">
    <inkscape:path-effect
       effect="fill_between_many"
       method="originald"
       linkedpaths="#path4150,0,1|#path3021,0,1|#path4143,0,1"
       id="path-effect4192"
       is_visible="true"
       lpeversion="0"
       join="true"
       close="true"
       autoreverse="true" />
    <inkscape:path-effect
       effect="fill_between_many"
       method="originald"
       linkedpaths="#path4150,0,1|#path3021,0,1|#path4143,0,1"
       id="path-effect4184"
       is_visible="true"
       lpeversion="0"
       join="true"
       close="true"
       autoreverse="true" />
    <inkscape:path-effect
       effect="fill_between_many"
       method="originald"
       linkedpaths="#path4150,0,1|#path3021,0,1|#path4143,0,1"
       id="path-effect4178"
       is_visible="true"
       lpeversion="0"
       join="true"
       close="true"
       autoreverse="true" />
    <inkscape:path-effect
       effect="fill_between_many"
       method="originald"
       linkedpaths="#path4150,0,1|#path3021,0,1|#path4143,0,1"
       id="path-effect4172"
       is_visible="true"
       lpeversion="0"
       join="true"
       close="true"
       autoreverse="true" />
    <inkscape:path-effect
       effect="fill_between_many"
       method="originald"
       linkedpaths="#path4150,0,1|#path3021,0,1|#path4143,0,1"
       id="path-effect4166"
       is_visible="true"
       lpeversion="0"
       join="true"
       close="true"
       autoreverse="true" />
    <inkscape:path-effect
       effect="fill_between_many"
       method="originald"
       linkedpaths="#path4150,0,1|#path3021,0,1|#path4143,0,1"
       id="path-effect4160"
       is_visible="true"
       lpeversion="0"
       join="true"
       close="true"
       autoreverse="true" />
    <inkscape:path-effect
       effect="fill_between_many"
       method="originald"
       linkedpaths="#path4150,0,1|#path3021,0,1|#path4143,0,1"
       id="path-effect4152"
       is_visible="true"
       lpeversion="0"
       join="true"
       close="true"
       autoreverse="true" />
    <inkscape:path-effect
       effect="fill_between_many"
       method="originald"
       linkedpaths="#path3017,0,1|#path3750,0,1|#path3824,0,1|#path3826,0,1|#path3828,0,1|#path3830,0,1|#path3832,0,1|#path3834,0,1|#path3836,0,1|#path3838,0,1|#path3917,0,1|#path4188,0,1"
       id="path-effect4202"
       is_visible="true"
       lpeversion="0"
       join="true"
       close="true"
       autoreverse="true" />
  </defs>
  <g
     inkscape:label="Laag 1"
     inkscape:groupmode="layer"
     id="layer1">
    <path
       sodipodi:type="star"
       style="opacity:0.95;fill:#000000;stroke:#404040;stroke-width:0;stroke-dasharray:none"
       id="path238"
       inkscape:flatsided="true"
       sodipodi:sides="6"
       sodipodi:cx="60.975819"
       sodipodi:cy="31.119186"
       sodipodi:r1="13.237498"
       sodipodi:r2="11.464011"
       sodipodi:arg1="-0.52359878"
       sodipodi:arg2="0"
       inkscape:rounded="0"
       inkscape:randomized="0"
       d="m 72.439828,24.500437 0,13.237498 -11.464009,6.61875 -11.46401,-6.618749 0,-13.237499 11.46401,-6.618749 z"
       transform="matrix(0.37607463,0,0,0.37607463,45.568248,42.9965)" />
    <path
       sodipodi:type="star"
       style="opacity:0.95;fill:#000000;stroke:#404040;stroke-width:0;stroke-dasharray:none"
       id="path373"
       inkscape:flatsided="true"
       sodipodi:sides="6"
       sodipodi:cx="60.975819"
       sodipodi:cy="31.119186"
       sodipodi:r1="13.237498"
       sodipodi:r2="11.464011"
       sodipodi:arg1="-0.52359878"
       sodipodi:arg2="0"
       inkscape:rounded="0"
       inkscape:randomized="0"
       d="m 72.439828,24.500437 0,13.237498 -11.464009,6.61875 -11.46401,-6.618749 0,-13.237499 11.46401,-6.618749 z"
       transform="matrix(0.37607463,0,0,0.37607463,39.792723,52.9965)" />
    <path
       sodipodi:type="star"
       style="opacity:0.95;fill:#000000;stroke:#404040;stroke-width:0;stroke-dasharray:none"
       id="path375"
       inkscape:flatsided="true"
       sodipodi:sides="6"
       sodipodi:cx="60.975819"
       sodipodi:cy="31.119186"
       sodipodi:r1="13.237498"
       sodipodi:r2="11.464011"
       sodipodi:arg1="-0.52359878"
       sodipodi:arg2="0"
       inkscape:rounded="0"
       inkscape:randomized="0"
       d="m 72.439828,24.500437 0,13.237498 -11.464009,6.61875 -11.46401,-6.618749 0,-13.237499 11.46401,-6.618749 z"
       transform="matrix(0.37607463,0,0,0.37607463,51.344112,52.9965)" />
    <path
       sodipodi:type="star"
       style="opacity:0.95;fill:#000000;stroke:#404040;stroke-width:0;stroke-dasharray:none"
       id="path1202"
       inkscape:flatsided="true"
       sodipodi:sides="6"
       sodipodi:cx="60.975819"
       sodipodi:cy="31.119186"
       sodipodi:r1="13.237498"
       sodipodi:r2="11.464011"
       sodipodi:arg1="-0.52359878"
       sodipodi:arg2="0"
       inkscape:rounded="0"
       inkscape:randomized="0"
       d="m 72.439828,24.500437 0,13.237498 -11.464009,6.61875 -11.46401,-6.618749 0,-13.237499 11.46401,-6.618749 z"
       transform="matrix(0.37607463,0,0,0.37607463,34.032851,62.974788)" />
    <path
       sodipodi:type="star"
       style="opacity:0.95;fill:#000000;stroke:#404040;stroke-width:0;stroke-dasharray:none"
       id="path1204"
       inkscape:flatsided="true"
       sodipodi:sides="6"
       sodipodi:cx="60.975819"
       sodipodi:cy="31.119186"
       sodipodi:r1="13.237498"
       sodipodi:r2="11.464011"
       sodipodi:arg1="-0.52359878"
       sodipodi:arg2="0"
       inkscape:rounded="0"
       inkscape:randomized="0"
       d="m 72.439828,24.500437 0,13.237498 -11.464009,6.61875 -11.46401,-6.618749 0,-13.237499 11.46401,-6.618749 z"
       transform="matrix(0.37607463,0,0,0.37607463,45.564797,62.974788)" />
    <path
       sodipodi:type="star"
       style="opacity:0.95;fill:#000000;stroke:#404040;stroke-width:0;stroke-dasharray:none"
       id="path1210"
       inkscape:flatsided="true"
       sodipodi:sides="6"
       sodipodi:cx="60.975819"
       sodipodi:cy="31.119186"
       sodipodi:r1="13.237498"
       sodipodi:r2="11.464011"
       sodipodi:arg1="-0.52359878"
       sodipodi:arg2="0"
       inkscape:rounded="0"
       inkscape:randomized="0"
       d="m 72.439828,24.500437 0,13.237498 -11.464009,6.61875 -11.46401,-6.618749 0,-13.237499 11.46401,-6.618749 z"
       transform="matrix(0.37607463,0,0,0.37607463,57.104095,62.974788)" />
    <path
       sodipodi:type="star"
       style="opacity:0.95;fill:#000000;stroke:#404040;stroke-width:0;stroke-dasharray:none"
       id="path1224"
       inkscape:flatsided="true"
       sodipodi:sides="6"
       sodipodi:cx="60.975819"
       sodipodi:cy="31.119186"
       sodipodi:r1="13.237498"
       sodipodi:r2="11.464011"
       sodipodi:arg1="-0.52359878"
       sodipodi:arg2="0"
       inkscape:rounded="0"
       inkscape:randomized="0"
       d="m 72.439828,24.500437 0,13.237498 -11.464009,6.61875 -11.46401,-6.618749 0,-13.237499 11.46401,-6.618749 z"
       transform="matrix(0.37607463,0,0,0.37607463,28.258544,72.974788)" />
    <path
       sodipodi:type="star"
       style="opacity:0.95;fill:#000000;stroke:#404040;stroke-width:0;stroke-dasharray:none"
       id="path1226"
       inkscape:flatsided="true"
       sodipodi:sides="6"
       sodipodi:cx="60.975819"
       sodipodi:cy="31.119186"
       sodipodi:r1="13.237498"
       sodipodi:r2="11.464011"
       sodipodi:arg1="-0.52359878"
       sodipodi:arg2="0"
       inkscape:rounded="0"
       inkscape:randomized="0"
       d="m 72.439828,24.500437 0,13.237498 -11.464009,6.61875 -11.46401,-6.618749 0,-13.237499 11.46401,-6.618749 z"
       transform="matrix(0.37607463,0,0,0.37607463,39.79049,72.974788)" />
    <path
       sodipodi:type="star"
       style="opacity:0.95;fill:#000000;stroke:#404040;stroke-width:0;stroke-dasharray:none"
       id="path1228"
       inkscape:flatsided="true"
       sodipodi:sides="6"
       sodipodi:cx="60.975819"
       sodipodi:cy="31.119186"
       sodipodi:r1="13.237498"
       sodipodi:r2="11.464011"
       sodipodi:arg1="-0.52359878"
       sodipodi:arg2="0"
       inkscape:rounded="0"
       inkscape:randomized="0"
       d="m 72.439828,24.500437 0,13.237498 -11.464009,6.61875 -11.46401,-6.618749 0,-13.237499 11.46401,-6.618749 z"
       transform="matrix(0.37607463,0,0,0.37607463,51.347344,72.974788)" />
    <path
       sodipodi:type="star"
       style="opacity:0.95;fill:#000000;stroke:#404040;stroke-width:0;stroke-dasharray:none"
       id="path1230"
       inkscape:flatsided="true"
       sodipodi:sides="6"
       sodipodi:cx="60.975819"
       sodipodi:cy="31.119186"
       sodipodi:r1="13.237498"
       sodipodi:r2="11.464011"
       sodipodi:arg1="-0.52359878"
       sodipodi:arg2="0"
       inkscape:rounded="0"
       inkscape:randomized="0"
       d="m 72.439828,24.500437 0,13.237498 -11.464009,6.61875 -11.46401,-6.618749 0,-13.237499 11.46401,-6.618749 z"
       transform="matrix(0.37607463,0,0,0.37607463,62.87929,72.974788)" />
    <path
       sodipodi:type="star"
       style="opacity:0.95;fill:#000000;stroke:#404040;stroke-width:0;stroke-dasharray:none"
       id="path1232"
       inkscape:flatsided="true"
       sodipodi:sides="6"
       sodipodi:cx="60.975819"
       sodipodi:cy="31.119186"
       sodipodi:r1="13.237498"
       sodipodi:r2="11.464011"
       sodipodi:arg1="-0.52359878"
       sodipodi:arg2="0"
       inkscape:rounded="0"
       inkscape:randomized="0"
       d="m 72.439828,24.500437 0,13.237498 -11.464009,6.61875 -11.46401,-6.618749 0,-13.237499 11.46401,-6.618749 z"
       transform="matrix(0.37607463,0,0,0.37607463,22.479927,82.974788)" />
    <path
       sodipodi:type="star"
       style="opacity:0.95;fill:#000000;stroke:#404040;stroke-width:0;stroke-dasharray:none"
       id="path1234"
       inkscape:flatsided="true"
       sodipodi:sides="6"
       sodipodi:cx="60.975819"
       sodipodi:cy="31.119186"
       sodipodi:r1="13.237498"
       sodipodi:r2="11.464011"
       sodipodi:arg1="-0.52359878"
       sodipodi:arg2="0"
       inkscape:rounded="0"
       inkscape:randomized="0"
       d="m 72.439828,24.500437 0,13.237498 -11.464009,6.61875 -11.46401,-6.618749 0,-13.237499 11.46401,-6.618749 z"
       transform="matrix(0.37607463,0,0,0.37607463,34.011873,82.974788)" />
    <path
       sodipodi:type="star"
       style="opacity:0.95;fill:#000000;stroke:#404040;stroke-width:0;stroke-dasharray:none"
       id="path1236"
       inkscape:flatsided="true"
       sodipodi:sides="6"
       sodipodi:cx="60.975819"
       sodipodi:cy="31.119186"
       sodipodi:r1="13.237498"
       sodipodi:r2="11.464011"
       sodipodi:arg1="-0.52359878"
       sodipodi:arg2="0"
       inkscape:rounded="0"
       inkscape:randomized="0"
       d="m 72.439828,24.500437 0,13.237498 -11.464009,6.61875 -11.46401,-6.618749 0,-13.237499 11.46401,-6.618749 z"
       transform="matrix(0.37607463,0,0,0.37607463,45.568727,82.974788)" />
    <path
       sodipodi:type="star"
       style="opacity:0.95;fill:#000000;stroke:#404040;stroke-width:0;stroke-dasharray:none"
       id="path1238"
       inkscape:flatsided="true"
       sodipodi:sides="6"
       sodipodi:cx="60.975819"
       sodipodi:cy="31.119186"
       sodipodi:r1="13.237498"
       sodipodi:r2="11.464011"
       sodipodi:arg1="-0.52359878"
       sodipodi:arg2="0"
       inkscape:rounded="0"
       inkscape:randomized="0"
       d="m 72.439828,24.500437 0,13.237498 -11.464009,6.61875 -11.46401,-6.618749 0,-13.237499 11.46401,-6.618749 z"
       transform="matrix(0.37607463,0,0,0.37607463,57.100673,82.974788)" />
    <path
       sodipodi:type="star"
       style="opacity:0.95;fill:#000000;stroke:#404040;stroke-width:0;stroke-dasharray:none"
       id="path1240"
       inkscape:flatsided="true"
       sodipodi:sides="6"
       sodipodi:cx="60.975819"
       sodipodi:cy="31.119186"
       sodipodi:r1="13.237498"
       sodipodi:r2="11.464011"
       sodipodi:arg1="-0.52359878"
       sodipodi:arg2="0"
       inkscape:rounded="0"
       inkscape:randomized="0"
       d="m 72.439828,24.500437 0,13.237498 -11.464009,6.61875 -11.46401,-6.618749 0,-13.237499 11.46401,-6.618749 z"
       transform="matrix(0.37607463,0,0,0.37607463,68.650676,82.974788)" />
    <path
       sodipodi:type="star"
       style="opacity:0.95;fill:#000000;stroke:#404040;stroke-width:0;stroke-dasharray:none"
       id="path1242"
       inkscape:flatsided="true"
       sodipodi:sides="6"
       sodipodi:cx="60.975819"
       sodipodi:cy="31.119186"
       sodipodi:r1="13.237498"
       sodipodi:r2="11.464011"
       sodipodi:arg1="-0.52359878"
       sodipodi:arg2="0"
       inkscape:rounded="0"
       inkscape:randomized="0"
       d="m 72.439828,24.500437 0,13.237498 -11.464009,6.61875 -11.46401,-6.618749 0,-13.237499 11.46401,-6.618749 z"
       transform="matrix(0.37607463,0,0,0.37607463,16.71079,92.974788)" />
    <path
       sodipodi:type="star"
       style="opacity:0.95;fill:#000000;stroke:#404040;stroke-width:0;stroke-dasharray:none"
       id="path1244"
       inkscape:flatsided="true"
       sodipodi:sides="6"
       sodipodi:cx="60.975819"
       sodipodi:cy="31.119186"
       sodipodi:r1="13.237498"
       sodipodi:r2="11.464011"
       sodipodi:arg1="-0.52359878"
       sodipodi:arg2="0"
       inkscape:rounded="0"
       inkscape:randomized="0"
       d="m 72.439828,24.500437 0,13.237498 -11.464009,6.61875 -11.46401,-6.618749 0,-13.237499 11.46401,-6.618749 z"
       transform="matrix(0.37607463,0,0,0.37607463,28.242736,92.974788)" />
    <path
       sodipodi:type="star"
       style="opacity:0.95;fill:#000000;stroke:#404040;stroke-width:0;stroke-dasharray:none"
       id="path1246"
       inkscape:flatsided="true"
       sodipodi:sides="6"
       sodipodi:cx="60.975819"
       sodipodi:cy="31.119186"
       sodipodi:r1="13.237498"
       sodipodi:r2="11.464011"
       sodipodi:arg1="-0.52359878"
       sodipodi:arg2="0"
       inkscape:rounded="0"
       inkscape:randomized="0"
       d="m 72.439828,24.500437 0,13.237498 -11.464009,6.61875 -11.46401,-6.618749 0,-13.237499 11.46401,-6.618749 z"
       transform="matrix(0.37607463,0,0,0.37607463,39.79959,92.974788)" />
    <path
       sodipodi:type="star"
       style="opacity:0.95;fill:#000000;stroke:#404040;stroke-width:0;stroke-dasharray:none"
       id="path1248"
       inkscape:flatsided="true"
       sodipodi:sides="6"
       sodipodi:cx="60.975819"
       sodipodi:cy="31.119186"
       sodipodi:r1="13.237498"
       sodipodi:r2="11.464011"
       sodipodi:arg1="-0.52359878"
       sodipodi:arg2="0"
       inkscape:rounded="0"
       inkscape:randomized="0"
       d="m 72.439828,24.500437 0,13.237498 -11.464009,6.61875 -11.46401,-6.618749 0,-13.237499 11.46401,-6.618749 z"
       transform="matrix(0.37607463,0,0,0.37607463,51.331536,92.974788)" />
    <path
       sodipodi:type="star"
       style="opacity:0.95;fill:#000000;stroke:#404040;stroke-width:0;stroke-dasharray:none"
       id="path1250"
       inkscape:flatsided="true"
       sodipodi:sides="6"
       sodipodi:cx="60.975819"
       sodipodi:cy="31.119186"
       sodipodi:r1="13.237498"
       sodipodi:r2="11.464011"
       sodipodi:arg1="-0.52359878"
       sodipodi:arg2="0"
       inkscape:rounded="0"
       inkscape:randomized="0"
       d="m 72.439828,24.500437 0,13.237498 -11.464009,6.61875 -11.46401,-6.618749 0,-13.237499 11.46401,-6.618749 z"
       transform="matrix(0.37607463,0,0,0.37607463,62.881539,92.974788)" />
    <path
       sodipodi:type="star"
       style="opacity:0.95;fill:#000000;stroke:#404040;stroke-width:0;stroke-dasharray:none"
       id="path1252"
       inkscape:flatsided="true"
       sodipodi:sides="6"
       sodipodi:cx="60.975819"
       sodipodi:cy="31.119186"
       sodipodi:r1="13.237498"
       sodipodi:r2="11.464011"
       sodipodi:arg1="-0.52359878"
       sodipodi:arg2="0"
       inkscape:rounded="0"
       inkscape:randomized="0"
       d="m 72.439828,24.500437 0,13.237498 -11.464009,6.61875 -11.46401,-6.618749 0,-13.237499 11.46401,-6.618749 z"
       transform="matrix(0.37607463,0,0,0.37607463,74.431326,92.974788)" />
    <path
       sodipodi:type="star"
       style="opacity:0.95;fill:#000000;stroke:#404040;stroke-width:0;stroke-dasharray:none"
       id="path1254"
       inkscape:flatsided="true"
       sodipodi:sides="6"
       sodipodi:cx="60.975819"
       sodipodi:cy="31.119186"
       sodipodi:r1="13.237498"
       sodipodi:r2="11.464011"
       sodipodi:arg1="-0.52359878"
       sodipodi:arg2="0"
       inkscape:rounded="0"
       inkscape:randomized="0"
       d="m 72.439828,24.500437 0,13.237498 -11.464009,6.61875 -11.46401,-6.618749 0,-13.237499 11.46401,-6.618749 z"
       transform="matrix(0.37607463,0,0,0.37607463,10.937517,102.97479)" />
    <path
       sodipodi:type="star"
       style="opacity:0.95;fill:#000000;stroke:#404040;stroke-width:0;stroke-dasharray:none"
       id="path1256"
       inkscape:flatsided="true"
       sodipodi:sides="6"
       sodipodi:cx="60.975819"
       sodipodi:cy="31.119186"
       sodipodi:r1="13.237498"
       sodipodi:r2="11.464011"
       sodipodi:arg1="-0.52359878"
       sodipodi:arg2="0"
       inkscape:rounded="0"
       inkscape:randomized="0"
       d="m 72.439828,24.500437 0,13.237498 -11.464009,6.61875 -11.46401,-6.618749 0,-13.237499 11.46401,-6.618749 z"
       transform="matrix(0.37607463,0,0,0.37607463,22.469463,102.97479)" />
    <path
       sodipodi:type="star"
       style="opacity:0.95;fill:#000000;stroke:#404040;stroke-width:0;stroke-dasharray:none"
       id="path1258"
       inkscape:flatsided="true"
       sodipodi:sides="6"
       sodipodi:cx="60.975819"
       sodipodi:cy="31.119186"
       sodipodi:r1="13.237498"
       sodipodi:r2="11.464011"
       sodipodi:arg1="-0.52359878"
       sodipodi:arg2="0"
       inkscape:rounded="0"
       inkscape:randomized="0"
       d="m 72.439828,24.500437 0,13.237498 -11.464009,6.61875 -11.46401,-6.618749 0,-13.237499 11.46401,-6.618749 z"
       transform="matrix(0.37607463,0,0,0.37607463,34.026317,102.97479)" />
    <path
       sodipodi:type="star"
       style="opacity:0.95;fill:#000000;stroke:#404040;stroke-width:0;stroke-dasharray:none"
       id="path1260"
       inkscape:flatsided="true"
       sodipodi:sides="6"
       sodipodi:cx="60.975819"
       sodipodi:cy="31.119186"
       sodipodi:r1="13.237498"
       sodipodi:r2="11.464011"
       sodipodi:arg1="-0.52359878"
       sodipodi:arg2="0"
       inkscape:rounded="0"
       inkscape:randomized="0"
       d="m 72.439828,24.500437 0,13.237498 -11.464009,6.61875 -11.46401,-6.618749 0,-13.237499 11.46401,-6.618749 z"
       transform="matrix(0.37607463,0,0,0.37607463,45.558263,102.97479)" />
    <path
       sodipodi:type="star"
       style="opacity:0.95;fill:#000000;stroke:#404040;stroke-width:0;stroke-dasharray:none"
       id="path1262"
       inkscape:flatsided="true"
       sodipodi:sides="6"
       sodipodi:cx="60.975819"
       sodipodi:cy="31.119186"
       sodipodi:r1="13.237498"
       sodipodi:r2="11.464011"
       sodipodi:arg1="-0.52359878"
       sodipodi:arg2="0"
       inkscape:rounded="0"
       inkscape:randomized="0"
       d="m 72.439828,24.500437 0,13.237498 -11.464009,6.61875 -11.46401,-6.618749 0,-13.237499 11.46401,-6.618749 z"
       transform="matrix(0.37607463,0,0,0.37607463,57.108266,102.97479)" />
    <path
       sodipodi:type="star"
       style="opacity:0.95;fill:#000000;stroke:#404040;stroke-width:0;stroke-dasharray:none"
       id="path1264"
       inkscape:flatsided="true"
       sodipodi:sides="6"
       sodipodi:cx="60.975819"
       sodipodi:cy="31.119186"
       sodipodi:r1="13.237498"
       sodipodi:r2="11.464011"
       sodipodi:arg1="-0.52359878"
       sodipodi:arg2="0"
       inkscape:rounded="0"
       inkscape:randomized="0"
       d="m 72.439828,24.500437 0,13.237498 -11.464009,6.61875 -11.46401,-6.618749 0,-13.237499 11.46401,-6.618749 z"
       transform="matrix(0.37607463,0,0,0.37607463,68.657836,102.97479)" />
    <path
       sodipodi:type="star"
       style="opacity:0.95;fill:#000000;stroke:#404040;stroke-width:0;stroke-dasharray:none"
       id="path1300"
       inkscape:flatsided="true"
       sodipodi:sides="6"
       sodipodi:cx="60.975819"
       sodipodi:cy="31.119186"
       sodipodi:r1="13.237498"
       sodipodi:r2="11.464011"
       sodipodi:arg1="-0.52359878"
       sodipodi:arg2="0"
       inkscape:rounded="0"
       inkscape:randomized="0"
       d="m 72.439828,24.500437 0,13.237498 -11.464009,6.61875 -11.46401,-6.618749 0,-13.237499 11.46401,-6.618749 z"
       transform="matrix(0.37607463,0,0,0.37607463,80.197606,102.97479)" />
    <path
       sodipodi:type="star"
       style="opacity:0.95;fill:#000000;stroke:#404040;stroke-width:0;stroke-dasharray:none"
       id="path1302"
       inkscape:flatsided="true"
       sodipodi:sides="6"
       sodipodi:cx="60.975819"
       sodipodi:cy="31.119186"
       sodipodi:r1="13.237498"
       sodipodi:r2="11.464011"
       sodipodi:arg1="-0.52359878"
       sodipodi:arg2="0"
       inkscape:rounded="0"
       inkscape:randomized="0"
       d="m 72.439828,24.500437 0,13.237498 -11.464009,6.61875 -11.46401,-6.618749 0,-13.237499 11.46401,-6.618749 z"
       transform="matrix(0.37607463,0,0,0.37607463,5.1642435,112.97479)" />
    <path
       sodipodi:type="star"
       style="opacity:0.95;fill:#000000;stroke:#404040;stroke-width:0;stroke-dasharray:none"
       id="path1304"
       inkscape:flatsided="true"
       sodipodi:sides="6"
       sodipodi:cx="60.975819"
       sodipodi:cy="31.119186"
       sodipodi:r1="13.237498"
       sodipodi:r2="11.464011"
       sodipodi:arg1="-0.52359878"
       sodipodi:arg2="0"
       inkscape:rounded="0"
       inkscape:randomized="0"
       d="m 72.439828,24.500437 0,13.237498 -11.464009,6.61875 -11.46401,-6.618749 0,-13.237499 11.46401,-6.618749 z"
       transform="matrix(0.37607463,0,0,0.37607463,16.69619,112.97479)" />
    <path
       sodipodi:type="star"
       style="opacity:0.95;fill:#000000;stroke:#404040;stroke-width:0;stroke-dasharray:none"
       id="path1306"
       inkscape:flatsided="true"
       sodipodi:sides="6"
       sodipodi:cx="60.975819"
       sodipodi:cy="31.119186"
       sodipodi:r1="13.237498"
       sodipodi:r2="11.464011"
       sodipodi:arg1="-0.52359878"
       sodipodi:arg2="0"
       inkscape:rounded="0"
       inkscape:randomized="0"
       d="m 72.439828,24.500437 0,13.237498 -11.464009,6.61875 -11.46401,-6.618749 0,-13.237499 11.46401,-6.618749 z"
       transform="matrix(0.37607463,0,0,0.37607463,28.253044,112.97479)" />
    <path
       sodipodi:type="star"
       style="opacity:0.95;fill:#000000;stroke:#404040;stroke-width:0;stroke-dasharray:none"
       id="path1308"
       inkscape:flatsided="true"
       sodipodi:sides="6"
       sodipodi:cx="60.975819"
       sodipodi:cy="31.119186"
       sodipodi:r1="13.237498"
       sodipodi:r2="11.464011"
       sodipodi:arg1="-0.52359878"
       sodipodi:arg2="0"
       inkscape:rounded="0"
       inkscape:randomized="0"
       d="m 72.439828,24.500437 0,13.237498 -11.464009,6.61875 -11.46401,-6.618749 0,-13.237499 11.46401,-6.618749 z"
       transform="matrix(0.37607463,0,0,0.37607463,39.78499,112.97479)" />
    <path
       sodipodi:type="star"
       style="opacity:0.95;fill:#000000;stroke:#404040;stroke-width:0;stroke-dasharray:none"
       id="path1310"
       inkscape:flatsided="true"
       sodipodi:sides="6"
       sodipodi:cx="60.975819"
       sodipodi:cy="31.119186"
       sodipodi:r1="13.237498"
       sodipodi:r2="11.464011"
       sodipodi:arg1="-0.52359878"
       sodipodi:arg2="0"
       inkscape:rounded="0"
       inkscape:randomized="0"
       d="m 72.439828,24.500437 0,13.237498 -11.464009,6.61875 -11.46401,-6.618749 0,-13.237499 11.46401,-6.618749 z"
       transform="matrix(0.37607463,0,0,0.37607463,51.334993,112.97479)" />
    <path
       sodipodi:type="star"
       style="opacity:0.95;fill:#000000;stroke:#404040;stroke-width:0;stroke-dasharray:none"
       id="path1312"
       inkscape:flatsided="true"
       sodipodi:sides="6"
       sodipodi:cx="60.975819"
       sodipodi:cy="31.119186"
       sodipodi:r1="13.237498"
       sodipodi:r2="11.464011"
       sodipodi:arg1="-0.52359878"
       sodipodi:arg2="0"
       inkscape:rounded="0"
       inkscape:randomized="0"
       d="m 72.439828,24.500437 0,13.237498 -11.464009,6.61875 -11.46401,-6.618749 0,-13.237499 11.46401,-6.618749 z"
       transform="matrix(0.37607463,0,0,0.37607463,62.884563,112.97479)" />
    <path
       sodipodi:type="star"
       style="opacity:0.95;fill:#000000;stroke:#404040;stroke-width:0;stroke-dasharray:none"
       id="path1314"
       inkscape:flatsided="true"
       sodipodi:sides="6"
       sodipodi:cx="60.975819"
       sodipodi:cy="31.119186"
       sodipodi:r1="13.237498"
       sodipodi:r2="11.464011"
       sodipodi:arg1="-0.52359878"
       sodipodi:arg2="0"
       inkscape:rounded="0"
       inkscape:randomized="0"
       d="m 72.439828,24.500437 0,13.237498 -11.464009,6.61875 -11.46401,-6.618749 0,-13.237499 11.46401,-6.618749 z"
       transform="matrix(0.37607463,0,0,0.37607463,74.424116,112.97479)" />
    <path
       sodipodi:type="star"
       style="opacity:0.95;fill:#000000;stroke:#404040;stroke-width:0;stroke-dasharray:none"
       id="path1316"
       inkscape:flatsided="true"
       sodipodi:sides="6"
       sodipodi:cx="60.975819"
       sodipodi:cy="31.119186"
       sodipodi:r1="13.237498"
       sodipodi:r2="11.464011"
       sodipodi:arg1="-0.52359878"
       sodipodi:arg2="0"
       inkscape:rounded="0"
       inkscape:randomized="0"
       d="m 72.439828,24.500437 0,13.237498 -11.464009,6.61875 -11.46401,-6.618749 0,-13.237499 11.46401,-6.618749 z"
       transform="matrix(0.37607463,0,0,0.37607463,85.971095,112.97479)" />
    <path
       sodipodi:type="star"
       style="opacity:0.95;fill:#000000;stroke:#404040;stroke-width:0;stroke-dasharray:none"
       id="path1318"
       inkscape:flatsided="true"
       sodipodi:sides="6"
       sodipodi:cx="60.975819"
       sodipodi:cy="31.119186"
       sodipodi:r1="13.237498"
       sodipodi:r2="11.464011"
       sodipodi:arg1="-0.52359878"
       sodipodi:arg2="0"
       inkscape:rounded="0"
       inkscape:randomized="0"
       d="m 72.439828,24.500437 0,13.237498 -11.464009,6.61875 -11.46401,-6.618749 0,-13.237499 11.46401,-6.618749 z"
       transform="matrix(0.37607463,0,0,0.37607463,-0.60902948,122.97479)" />
    <path
       sodipodi:type="star"
       style="opacity:0.95;fill:#000000;stroke:#404040;stroke-width:0;stroke-dasharray:none"
       id="path1320"
       inkscape:flatsided="true"
       sodipodi:sides="6"
       sodipodi:cx="60.975819"
       sodipodi:cy="31.119186"
       sodipodi:r1="13.237498"
       sodipodi:r2="11.464011"
       sodipodi:arg1="-0.52359878"
       sodipodi:arg2="0"
       inkscape:rounded="0"
       inkscape:randomized="0"
       d="m 72.439828,24.500437 0,13.237498 -11.464009,6.61875 -11.46401,-6.618749 0,-13.237499 11.46401,-6.618749 z"
       transform="matrix(0.37607463,0,0,0.37607463,10.922917,122.97479)" />
    <path
       sodipodi:type="star"
       style="opacity:0.95;fill:#000000;stroke:#404040;stroke-width:0;stroke-dasharray:none"
       id="path1322"
       inkscape:flatsided="true"
       sodipodi:sides="6"
       sodipodi:cx="60.975819"
       sodipodi:cy="31.119186"
       sodipodi:r1="13.237498"
       sodipodi:r2="11.464011"
       sodipodi:arg1="-0.52359878"
       sodipodi:arg2="0"
       inkscape:rounded="0"
       inkscape:randomized="0"
       d="m 72.439828,24.500437 0,13.237498 -11.464009,6.61875 -11.46401,-6.618749 0,-13.237499 11.46401,-6.618749 z"
       transform="matrix(0.37607463,0,0,0.37607463,22.479771,122.97479)" />
    <path
       sodipodi:type="star"
       style="opacity:0.95;fill:#000000;stroke:#404040;stroke-width:0;stroke-dasharray:none"
       id="path1324"
       inkscape:flatsided="true"
       sodipodi:sides="6"
       sodipodi:cx="60.975819"
       sodipodi:cy="31.119186"
       sodipodi:r1="13.237498"
       sodipodi:r2="11.464011"
       sodipodi:arg1="-0.52359878"
       sodipodi:arg2="0"
       inkscape:rounded="0"
       inkscape:randomized="0"
       d="m 72.439828,24.500437 0,13.237498 -11.464009,6.61875 -11.46401,-6.618749 0,-13.237499 11.46401,-6.618749 z"
       transform="matrix(0.37607463,0,0,0.37607463,34.011717,122.97479)" />
    <path
       sodipodi:type="star"
       style="opacity:0.95;fill:#000000;stroke:#404040;stroke-width:0;stroke-dasharray:none"
       id="path1326"
       inkscape:flatsided="true"
       sodipodi:sides="6"
       sodipodi:cx="60.975819"
       sodipodi:cy="31.119186"
       sodipodi:r1="13.237498"
       sodipodi:r2="11.464011"
       sodipodi:arg1="-0.52359878"
       sodipodi:arg2="0"
       inkscape:rounded="0"
       inkscape:randomized="0"
       d="m 72.439828,24.500437 0,13.237498 -11.464009,6.61875 -11.46401,-6.618749 0,-13.237499 11.46401,-6.618749 z"
       transform="matrix(0.37607463,0,0,0.37607463,45.56172,122.97479)" />
    <path
       sodipodi:type="star"
       style="opacity:0.95;fill:#000000;stroke:#404040;stroke-width:0;stroke-dasharray:none"
       id="path1328"
       inkscape:flatsided="true"
       sodipodi:sides="6"
       sodipodi:cx="60.975819"
       sodipodi:cy="31.119186"
       sodipodi:r1="13.237498"
       sodipodi:r2="11.464011"
       sodipodi:arg1="-0.52359878"
       sodipodi:arg2="0"
       inkscape:rounded="0"
       inkscape:randomized="0"
       d="m 72.439828,24.500437 0,13.237498 -11.464009,6.61875 -11.46401,-6.618749 0,-13.237499 11.46401,-6.618749 z"
       transform="matrix(0.37607463,0,0,0.37607463,57.11129,122.97479)" />
    <path
       sodipodi:type="star"
       style="opacity:0.95;fill:#000000;stroke:#404040;stroke-width:0;stroke-dasharray:none"
       id="path1330"
       inkscape:flatsided="true"
       sodipodi:sides="6"
       sodipodi:cx="60.975819"
       sodipodi:cy="31.119186"
       sodipodi:r1="13.237498"
       sodipodi:r2="11.464011"
       sodipodi:arg1="-0.52359878"
       sodipodi:arg2="0"
       inkscape:rounded="0"
       inkscape:randomized="0"
       d="m 72.439828,24.500437 0,13.237498 -11.464009,6.61875 -11.46401,-6.618749 0,-13.237499 11.46401,-6.618749 z"
       transform="matrix(0.37607463,0,0,0.37607463,68.650626,122.97479)" />
    <path
       sodipodi:type="star"
       style="opacity:0.95;fill:#000000;stroke:#404040;stroke-width:0;stroke-dasharray:none"
       id="path1332"
       inkscape:flatsided="true"
       sodipodi:sides="6"
       sodipodi:cx="60.975819"
       sodipodi:cy="31.119186"
       sodipodi:r1="13.237498"
       sodipodi:r2="11.464011"
       sodipodi:arg1="-0.52359878"
       sodipodi:arg2="0"
       inkscape:rounded="0"
       inkscape:randomized="0"
       d="m 72.439828,24.500437 0,13.237498 -11.464009,6.61875 -11.46401,-6.618749 0,-13.237499 11.46401,-6.618749 z"
       transform="matrix(0.37607463,0,0,0.37607463,80.197606,122.97479)" />
    <path
       sodipodi:type="star"
       style="opacity:0.95;fill:#000000;stroke:#404040;stroke-width:0;stroke-dasharray:none"
       id="path1334"
       inkscape:flatsided="true"
       sodipodi:sides="6"
       sodipodi:cx="60.975819"
       sodipodi:cy="31.119186"
       sodipodi:r1="13.237498"
       sodipodi:r2="11.464011"
       sodipodi:arg1="-0.52359878"
       sodipodi:arg2="0"
       inkscape:rounded="0"
       inkscape:randomized="0"
       d="m 72.439828,24.500437 0,13.237498 -11.464009,6.61875 -11.46401,-6.618749 0,-13.237499 11.46401,-6.618749 z"
       transform="matrix(0.37607463,0,0,0.37607463,91.745615,122.97479)" />
    <path
       class="UnoptimicedTransforms"
       inkscape:original-d="M 0,0"
       inkscape:path-effect="#path-effect4202"
       d="M 0,0"
       id="path4204"
       style="fill:#000000;stroke-width:0;stroke-dasharray:none" />
    <path
       style="fill:#000000;stroke:#000000;stroke-width:0;stroke-linecap:butt;stroke-linejoin:miter;stroke-dasharray:none;stroke-opacity:1"
       d="M 4.991,26.757 4.989,149.679"
       id="path4150"
       sodipodi:nodetypes="cc" />
    <path
       id="path3822"
       style="opacity:0.95;fill:#000000;stroke:#404040;stroke-width:0;stroke-dasharray:none"
       d="m 69.971974,42.210144 v 4.978287 l 4.31135,2.489144 z"
       sodipodi:nodetypes="cccc" />
    <path
       id="path3919"
       style="opacity:0.95;fill:#000000;stroke:#404040;stroke-width:0;stroke-dasharray:none"
       d="m 75.74443,52.210002 v 4.978287 l 4.311,2.489144 z"
       sodipodi:nodetypes="cccc" />
    <path
       id="path3923"
       style="opacity:0.95;fill:#000000;stroke:#404040;stroke-width:0;stroke-dasharray:none"
       d="m 81.516886,62.210002 v 4.978287 l 4.310999,2.489144 z"
       sodipodi:nodetypes="cccc" />
    <path
       id="path3925"
       style="opacity:0.95;fill:#000000;stroke:#404040;stroke-width:0;stroke-dasharray:none"
       d="m 87.290055,72.210002 v 4.978287 l 4.311,2.489144 z"
       sodipodi:nodetypes="cccc" />
    <path
       id="path3927"
       style="opacity:0.95;fill:#000000;stroke:#404040;stroke-width:0;stroke-dasharray:none"
       d="m 93.062511,82.210002 v 4.978287 l 4.311,2.489144 z"
       sodipodi:nodetypes="cccc" />
    <path
       id="path3929"
       style="opacity:0.95;fill:#000000;stroke:#404040;stroke-width:0;stroke-dasharray:none"
       d="m 98.834967,92.210002 v 4.978288 l 4.310983,2.48914 z"
       sodipodi:nodetypes="cccc" />
    <path
       id="path3931"
       style="opacity:0.95;fill:#000000;stroke:#404040;stroke-width:0;stroke-dasharray:none"
       d="m 104.60736,102.21 v 4.97829 l 4.311,2.48914 z"
       sodipodi:nodetypes="cccc" />
    <path
       id="path3933"
       style="opacity:0.95;fill:#000000;stroke:#404040;stroke-width:0;stroke-dasharray:none"
       d="m 110.38085,112.21 v 4.97829 l 4.311,2.48914 z"
       sodipodi:nodetypes="cccc" />
    <path
       id="path3935"
       style="opacity:0.95;fill:#000000;stroke:#404040;stroke-width:0;stroke-dasharray:none"
       d="m 116.15331,122.21 v 4.97829 l 4.311,2.48914 z"
       sodipodi:nodetypes="cccc" />
    <path
       id="path3937"
       style="opacity:0.95;fill:#000000;stroke:#404040;stroke-width:0;stroke-dasharray:none"
       d="m 121.92577,132.21 v 4.97829 l 4.311,2.48914 z"
       sodipodi:nodetypes="cccc" />
    <path
       id="path3939"
       style="opacity:0.95;fill:#000000;stroke:#404040;stroke-width:0;stroke-dasharray:none"
       d="m 127.69926,142.21 v 4.97829 l 4.311,2.48914 z"
       sodipodi:nodetypes="cccc" />
    <path
       d="m 132.00751,12 0.002,137.67899 L 69.971303,42.21 132.00751,12 69.971303,42.21 Z"
       id="path4194"
       style="fill:#000000;stroke-width:0;stroke-dasharray:none"
       sodipodi:nodetypes="cccccc" />
    <path
       id="path8940"
       style="opacity:0.95;fill:#000000;stroke:#404040;stroke-width:0;stroke-dasharray:none"
       d="m 67.030656,42.210144 v 4.978287 l -4.31135,2.489144 z"
       sodipodi:nodetypes="cccc" />
    <path
       id="path8942"
       style="opacity:0.95;fill:#000000;stroke:#404040;stroke-width:0;stroke-dasharray:none"
       d="m 61.257166,52.210002 v 4.978287 l -4.311,2.489144 z"
       sodipodi:nodetypes="cccc" />
    <path
       id="path8944"
       style="opacity:0.95;fill:#000000;stroke:#404040;stroke-width:0;stroke-dasharray:none"
       d="m 55.48471,62.210002 v 4.978287 l -4.310999,2.489144 z"
       sodipodi:nodetypes="cccc" />
    <path
       id="path8946"
       style="opacity:0.95;fill:#000000;stroke:#404040;stroke-width:0;stroke-dasharray:none"
       d="m 49.711541,72.210002 v 4.978287 l -4.311,2.489144 z"
       sodipodi:nodetypes="cccc" />
    <path
       id="path8948"
       style="opacity:0.95;fill:#000000;stroke:#404040;stroke-width:0;stroke-dasharray:none"
       d="m 43.939085,82.210002 v 4.978287 l -4.311,2.489144 z"
       sodipodi:nodetypes="cccc" />
    <path
       id="path8950"
       style="opacity:0.95;fill:#000000;stroke:#404040;stroke-width:0;stroke-dasharray:none"
       d="M 38.165595,92.210002 V 97.18829 L 33.8546,99.67743 Z"
       sodipodi:nodetypes="cccc" />
    <path
       id="path8952"
       style="opacity:0.95;fill:#000000;stroke:#404040;stroke-width:0;stroke-dasharray:none"
       d="m 32.39216,102.21 v 4.97829 l -4.311,2.48914 z"
       sodipodi:nodetypes="cccc" />
    <path
       id="path8954"
       style="opacity:0.95;fill:#000000;stroke:#404040;stroke-width:0;stroke-dasharray:none"
       d="m 26.61867,112.21 v 4.97829 l -4.311,2.48914 z"
       sodipodi:nodetypes="cccc" />
    <path
       id="path8956"
       style="opacity:0.95;fill:#000000;stroke:#404040;stroke-width:0;stroke-dasharray:none"
       d="m 20.84518,122.21 v 4.97829 l -4.311,2.48914 z"
       sodipodi:nodetypes="cccc" />
    <path
       id="path8958"
       style="opacity:0.95;fill:#000000;stroke:#404040;stroke-width:0;stroke-dasharray:none"
       d="m 15.07169,132.21 v 4.97829 l -4.311,2.48914 z"
       sodipodi:nodetypes="cccc" />
    <path
       d="m 4.9929309,12 -0.002,137.67899 L 67.030741,42.21 4.9929309,12 67.030741,42.21 Z"
       id="path11340"
       style="fill:#000000;stroke-width:0;stroke-dasharray:none"
       sodipodi:nodetypes="cccccc" />
    <path
       id="path14813"
       style="opacity:0.95;fill:#000000;stroke:#404040;stroke-width:0;stroke-dasharray:none"
       d="m 9.3156701,142.18614 v 4.97829 l -4.3110066,2.48914 z"
       sodipodi:nodetypes="cccc" />
    <path
       sodipodi:type="star"
       style="opacity:0.95;fill:#000000;stroke:#404040;stroke-width:0;stroke-dasharray:none"
       id="path17122"
       inkscape:flatsided="true"
       sodipodi:sides="6"
       sodipodi:cx="60.975819"
       sodipodi:cy="31.119186"
       sodipodi:r1="13.237498"
       sodipodi:r2="11.464011"
       sodipodi:arg1="-0.52359878"
       sodipodi:arg2="0"
       inkscape:rounded="0"
       inkscape:randomized="0"
       d="m 72.439828,24.500437 0,13.237498 -11.464009,6.61875 -11.46401,-6.618749 0,-13.237499 11.46401,-6.618749 z"
       transform="matrix(0.37607463,0,0,0.37607463,85.973376,132.97515)" />
    <path
       sodipodi:type="star"
       style="opacity:0.95;fill:#000000;stroke:#404040;stroke-width:0;stroke-dasharray:none"
       id="path17128"
       inkscape:flatsided="true"
       sodipodi:sides="6"
       sodipodi:cx="60.975819"
       sodipodi:cy="31.119186"
       sodipodi:r1="13.237498"
       sodipodi:r2="11.464011"
       sodipodi:arg1="-0.52359878"
       sodipodi:arg2="0"
       inkscape:rounded="0"
       inkscape:randomized="0"
       d="m 72.439828,24.500437 0,13.237498 -11.464009,6.61875 -11.46401,-6.618749 0,-13.237499 11.46401,-6.618749 z"
       transform="matrix(0.37607463,0,0,0.37607463,97.51682,132.97515)" />
    <path
       id="path1336"
       style="opacity:0.95;fill:#000000;stroke:#404040;stroke-width:0;stroke-dasharray:none"
       d="M 6.6047592,-3.8178711e-6 C 2.9457092,-3.8178711e-6 -7.7636719e-7,3.7939912 -7.7636719e-7,8.5069692 V 191.4927 c 0,4.71298 2.94570997636719,8.5075 6.60475997636719,8.5075 H 130.39514 c 3.65907,0 6.60477,-3.79452 6.60477,-8.5075 V 8.5069692 c 0,-4.712978 -2.9457,-8.5069730178711 -6.60477,-8.5069730178711 z M 11.114569,5.0849572 H 125.88689 c 3.39252,0 6.12412,3.109742 6.12411,6.9720398 L 132.01063,195.01651 4.9909092,194.94291 V 12.056629 c 0,-3.8622978 2.73115,-6.9716678 6.1236598,-6.9716678 z"
       sodipodi:nodetypes="ssssssssssssccsss" />
    <path
       sodipodi:type="star"
       style="opacity:0.95;fill:#000000;stroke:#404040;stroke-width:0;stroke-dasharray:none"
       id="path17106"
       inkscape:flatsided="true"
       sodipodi:sides="6"
       sodipodi:cx="60.975819"
       sodipodi:cy="31.119186"
       sodipodi:r1="13.237498"
       sodipodi:r2="11.464011"
       sodipodi:arg1="-0.52359878"
       sodipodi:arg2="0"
       inkscape:rounded="0"
       inkscape:randomized="0"
       d="m 72.439828,24.500437 0,13.237498 -11.464009,6.61875 -11.46401,-6.618749 0,-13.237499 11.46401,-6.618749 z"
       transform="matrix(0.37607463,0,0,0.37607463,-6.3812886,132.97515)" />
    <path
       sodipodi:type="star"
       style="opacity:0.95;fill:#000000;stroke:#404040;stroke-width:0;stroke-dasharray:none"
       id="path17108"
       inkscape:flatsided="true"
       sodipodi:sides="6"
       sodipodi:cx="60.975819"
       sodipodi:cy="31.119186"
       sodipodi:r1="13.237498"
       sodipodi:r2="11.464011"
       sodipodi:arg1="-0.52359878"
       sodipodi:arg2="0"
       inkscape:rounded="0"
       inkscape:randomized="0"
       d="m 72.439828,24.500437 0,13.237498 -11.464009,6.61875 -11.46401,-6.618749 0,-13.237499 11.46401,-6.618749 z"
       transform="matrix(0.37607463,0,0,0.37607463,5.1506575,132.97515)" />
    <path
       sodipodi:type="star"
       style="opacity:0.95;fill:#000000;stroke:#404040;stroke-width:0;stroke-dasharray:none"
       id="path17110"
       inkscape:flatsided="true"
       sodipodi:sides="6"
       sodipodi:cx="60.975819"
       sodipodi:cy="31.119186"
       sodipodi:r1="13.237498"
       sodipodi:r2="11.464011"
       sodipodi:arg1="-0.52359878"
       sodipodi:arg2="0"
       inkscape:rounded="0"
       inkscape:randomized="0"
       d="m 72.439828,24.500437 0,13.237498 -11.464009,6.61875 -11.46401,-6.618749 0,-13.237499 11.46401,-6.618749 z"
       transform="matrix(0.37607463,0,0,0.37607463,16.707532,132.97515)" />
    <path
       sodipodi:type="star"
       style="opacity:0.95;fill:#000000;stroke:#404040;stroke-width:0;stroke-dasharray:none"
       id="path17112"
       inkscape:flatsided="true"
       sodipodi:sides="6"
       sodipodi:cx="60.975819"
       sodipodi:cy="31.119186"
       sodipodi:r1="13.237498"
       sodipodi:r2="11.464011"
       sodipodi:arg1="-0.52359878"
       sodipodi:arg2="0"
       inkscape:rounded="0"
       inkscape:randomized="0"
       d="m 72.439828,24.500437 0,13.237498 -11.464009,6.61875 -11.46401,-6.618749 0,-13.237499 11.46401,-6.618749 z"
       transform="matrix(0.37607463,0,0,0.37607463,28.239478,132.97515)" />
    <path
       sodipodi:type="star"
       style="opacity:0.95;fill:#000000;stroke:#404040;stroke-width:0;stroke-dasharray:none"
       id="path17114"
       inkscape:flatsided="true"
       sodipodi:sides="6"
       sodipodi:cx="60.975819"
       sodipodi:cy="31.119186"
       sodipodi:r1="13.237498"
       sodipodi:r2="11.464011"
       sodipodi:arg1="-0.52359878"
       sodipodi:arg2="0"
       inkscape:rounded="0"
       inkscape:randomized="0"
       d="m 72.439828,24.500437 0,13.237498 -11.464009,6.61875 -11.46401,-6.618749 0,-13.237499 11.46401,-6.618749 z"
       transform="matrix(0.37607463,0,0,0.37607463,39.789481,132.97515)" />
    <path
       sodipodi:type="star"
       style="opacity:0.95;fill:#000000;stroke:#404040;stroke-width:0;stroke-dasharray:none"
       id="path17116"
       inkscape:flatsided="true"
       sodipodi:sides="6"
       sodipodi:cx="60.975819"
       sodipodi:cy="31.119186"
       sodipodi:r1="13.237498"
       sodipodi:r2="11.464011"
       sodipodi:arg1="-0.52359878"
       sodipodi:arg2="0"
       inkscape:rounded="0"
       inkscape:randomized="0"
       d="m 72.439828,24.500437 0,13.237498 -11.464009,6.61875 -11.46401,-6.618749 0,-13.237499 11.46401,-6.618749 z"
       transform="matrix(0.37607463,0,0,0.37607463,51.339051,132.97515)" />
    <path
       sodipodi:type="star"
       style="opacity:0.95;fill:#000000;stroke:#404040;stroke-width:0;stroke-dasharray:none"
       id="path17118"
       inkscape:flatsided="true"
       sodipodi:sides="6"
       sodipodi:cx="60.975819"
       sodipodi:cy="31.119186"
       sodipodi:r1="13.237498"
       sodipodi:r2="11.464011"
       sodipodi:arg1="-0.52359878"
       sodipodi:arg2="0"
       inkscape:rounded="0"
       inkscape:randomized="0"
       d="m 72.439828,24.500437 0,13.237498 -11.464009,6.61875 -11.46401,-6.618749 0,-13.237499 11.46401,-6.618749 z"
       transform="matrix(0.37607463,0,0,0.37607463,62.878387,132.97515)" />
    <path
       sodipodi:type="star"
       style="opacity:0.95;fill:#000000;stroke:#404040;stroke-width:0;stroke-dasharray:none"
       id="path17120"
       inkscape:flatsided="true"
       sodipodi:sides="6"
       sodipodi:cx="60.975819"
       sodipodi:cy="31.119186"
       sodipodi:r1="13.237498"
       sodipodi:r2="11.464011"
       sodipodi:arg1="-0.52359878"
       sodipodi:arg2="0"
       inkscape:rounded="0"
       inkscape:randomized="0"
       d="m 72.439828,24.500437 0,13.237498 -11.464009,6.61875 -11.46401,-6.618749 0,-13.237499 11.46401,-6.618749 z"
       transform="matrix(0.37607463,0,0,0.37607463,74.425367,132.97515)" />
    <path
       style="fill:#000000;stroke:#000000;stroke-width:0;stroke-linecap:butt;stroke-linejoin:miter;stroke-dasharray:none;stroke-opacity:1"
       d="m 16.311944,146.41574 h 1.698651 v 48.52867 h -2.909149 v -48.52867 z"
       id="path1122" />
    <path
       style="fill:#000000;stroke:#000000;stroke-width:0;stroke-linecap:butt;stroke-linejoin:miter;stroke-dasharray:none;stroke-opacity:1"
       d="m 27.844014,146.41574 h 1.698651 v 48.53606 h -2.909149 v -48.53606 z"
       id="path1124" />
    <path
       style="fill:#000000;stroke:#000000;stroke-width:0;stroke-linecap:butt;stroke-linejoin:miter;stroke-dasharray:none;stroke-opacity:1"
       d="m 39.376084,146.41574 h 1.698651 v 48.53606 h -2.909149 v -48.53606 z"
       id="path1126" />
    <path
       style="fill:#000000;stroke:#000000;stroke-width:0;stroke-linecap:butt;stroke-linejoin:miter;stroke-dasharray:none;stroke-opacity:1"
       d="m 50.932687,146.42274 h 1.698651 v 48.53606 h -2.909149 v -48.53606 z"
       id="path1128" />
    <path
       style="fill:#000000;stroke:#000000;stroke-width:0;stroke-linecap:butt;stroke-linejoin:miter;stroke-dasharray:none;stroke-opacity:1"
       d="m 62.46504,146.41574 h 1.698651 v 48.53606 h -2.909149 v -48.53606 z"
       id="path1130" />
    <path
       style="fill:#000000;stroke:#000000;stroke-width:0;stroke-linecap:butt;stroke-linejoin:miter;stroke-dasharray:none;stroke-opacity:1"
       d="m 74.01524,146.40468 h 1.698651 v 48.53606 h -2.909149 v -48.53606 z"
       id="path1132" />
    <path
       style="fill:#000000;stroke:#000000;stroke-width:0;stroke-linecap:butt;stroke-linejoin:miter;stroke-dasharray:none;stroke-opacity:1"
       d="m 85.564577,146.41574 h 1.698651 v 48.53606 h -2.909149 v -48.53606 z"
       id="path1134" />
    <path
       style="fill:#000000;stroke:#000000;stroke-width:0;stroke-linecap:butt;stroke-linejoin:miter;stroke-dasharray:none;stroke-opacity:1"
       d="m 97.103885,146.41574 h 1.698651 v 48.53606 h -2.909149 v -48.53606 z"
       id="path1136" />
    <path
       style="fill:#000000;stroke:#000000;stroke-width:0;stroke-linecap:butt;stroke-linejoin:miter;stroke-dasharray:none;stroke-opacity:1"
       d="m 108.65048,146.41768 h 1.69866 v 48.53606 h -2.90916 v -48.53606 z"
       id="path1138" />
    <path
       style="fill:#000000;stroke:#000000;stroke-width:0;stroke-linecap:butt;stroke-linejoin:miter;stroke-dasharray:none;stroke-opacity:1"
       d="m 120.19814,146.44099 h 1.69866 v 48.53606 h -2.90916 v -48.53606 z"
       id="path1140" />
    <path
       style="fill:#000000;stroke:#000000;stroke-width:0;stroke-linecap:butt;stroke-linejoin:miter;stroke-dasharray:none;stroke-opacity:1"
       d="m 131.16075,146.4098 h 0.84804 v 48.60397 h -1.45237 V 146.4098 Z"
       id="path1142" />
    <path
       style="fill:#000000;stroke:#000000;stroke-width:0;stroke-linecap:butt;stroke-linejoin:miter;stroke-dasharray:none;stroke-opacity:1"
       d="m 5.5977525,146.41574 h 0.8475017 v 48.5179 H 4.9937998 v -48.5179 z"
       id="path1144" />
  </g>
</svg>
