<?xml version="1.0" encoding="UTF-8" standalone="no"?>
<!-- Created with Inkscape (http://www.inkscape.org/) -->

<svg
   width="136.99991mm"
   height="200.0002mm"
   viewBox="0 0 136.99991 200.0002"
   version="1.1"
   id="svg5"
   inkscape:version="1.2.2 (1:1.2.2+202212051552+b0a8486541)"
   sodipodi:docname="Quincunx.svg"
   xmlns:inkscape="http://www.inkscape.org/namespaces/inkscape"
   xmlns:sodipodi="http://sodipodi.sourceforge.net/DTD/sodipodi-0.dtd"
   xmlns="http://www.w3.org/2000/svg"
   xmlns:svg="http://www.w3.org/2000/svg">
  <sodipodi:namedview
     id="namedview7"
     pagecolor="#ffffff"
     bordercolor="#666666"
     borderopacity="1.0"
     inkscape:showpageshadow="2"
     inkscape:pageopacity="0.0"
     inkscape:pagecheckerboard="0"
     inkscape:deskcolor="#d1d1d1"
     inkscape:document-units="mm"
     showgrid="false"
     inkscape:zoom="1.0626296"
     inkscape:cx="346.31068"
     inkscape:cy="412.65553"
     inkscape:window-width="2502"
     inkscape:window-height="1016"
     inkscape:window-x="1978"
     inkscape:window-y="27"
     inkscape:window-maximized="1"
     inkscape:current-layer="layer1"
     showguides="true" />
  <defs
     id="defs2">
    <inkscape:path-effect
       effect="fill_between_many"
       method="originald"
       linkedpaths="#path4150,0,1|#path3021,0,1|#path4143,0,1"
       id="path-effect4192"
       is_visible="true"
       lpeversion="0"
       join="true"
       close="true"
       autoreverse="true" />
    <inkscape:path-effect
       effect="fill_between_many"
       method="originald"
       linkedpaths="#path4150,0,1|#path3021,0,1|#path4143,0,1"
       id="path-effect4184"
       is_visible="true"
       lpeversion="0"
       join="true"
       close="true"
       autoreverse="true" />
    <inkscape:path-effect
       effect="fill_between_many"
       method="originald"
       linkedpaths="#path4150,0,1|#path3021,0,1|#path4143,0,1"
       id="path-effect4178"
       is_visible="true"
       lpeversion="0"
       join="true"
       close="true"
       autoreverse="true" />
    <inkscape:path-effect
       effect="fill_between_many"
       method="originald"
       linkedpaths="#path4150,0,1|#path3021,0,1|#path4143,0,1"
       id="path-effect4172"
       is_visible="true"
       lpeversion="0"
       join="true"
       close="true"
       autoreverse="true" />
    <inkscape:path-effect
       effect="fill_between_many"
       method="originald"
       linkedpaths="#path4150,0,1|#path3021,0,1|#path4143,0,1"
       id="path-effect4166"
       is_visible="true"
       lpeversion="0"
       join="true"
       close="true"
       autoreverse="true" />
    <inkscape:path-effect
       effect="fill_between_many"
       method="originald"
       linkedpaths="#path4150,0,1|#path3021,0,1|#path4143,0,1"
       id="path-effect4160"
       is_visible="true"
       lpeversion="0"
       join="true"
       close="true"
       autoreverse="true" />
    <inkscape:path-effect
       effect="fill_between_many"
       method="originald"
       linkedpaths="#path4150,0,1|#path3021,0,1|#path4143,0,1"
       id="path-effect4152"
       is_visible="true"
       lpeversion="0"
       join="true"
       close="true"
       autoreverse="true" />
    <inkscape:path-effect
       effect="fill_between_many"
       method="originald"
       linkedpaths="#path3017,0,1|#path3750,0,1|#path3824,0,1|#path3826,0,1|#path3828,0,1|#path3830,0,1|#path3832,0,1|#path3834,0,1|#path3836,0,1|#path3838,0,1|#path3917,0,1|#path4188,0,1"
       id="path-effect4202"
       is_visible="true"
       lpeversion="0"
       join="true"
       close="true"
       autoreverse="true" />
  </defs>
  <g
     inkscape:label="Laag 1"
     inkscape:groupmode="layer"
     id="layer1">
    <path
       sodipodi:type="star"
       style="opacity:0.95;fill:#000000;stroke:#404040;stroke-width:0;stroke-dasharray:none"
       id="path238"
       inkscape:flatsided="true"
       sodipodi:sides="6"
       sodipodi:cx="60.975819"
       sodipodi:cy="31.119186"
       sodipodi:r1="13.237498"
       sodipodi:r2="11.464011"
       sodipodi:arg1="-0.52359878"
       sodipodi:arg2="0"
       inkscape:rounded="0"
       inkscape:randomized="0"
       d="m 72.439828,24.500437 0,13.237498 -11.464009,6.61875 -11.46401,-6.618749 0,-13.237499 11.46401,-6.618749 z"
       transform="matrix(0.26171184,0,0,0.26171184,52.541613,46.555376)" />
    <path
       sodipodi:type="star"
       style="opacity:0.95;fill:#000000;stroke:#404040;stroke-width:0;stroke-dasharray:none"
       id="path373"
       inkscape:flatsided="true"
       sodipodi:sides="6"
       sodipodi:cx="60.975819"
       sodipodi:cy="31.119186"
       sodipodi:r1="13.237498"
       sodipodi:r2="11.464011"
       sodipodi:arg1="-0.52359878"
       sodipodi:arg2="0"
       inkscape:rounded="0"
       inkscape:randomized="0"
       d="m 72.439828,24.500437 0,13.237498 -11.464009,6.61875 -11.46401,-6.618749 0,-13.237499 11.46401,-6.618749 z"
       transform="matrix(0.26171184,0,0,0.26171184,46.766088,56.53337)" />
    <path
       sodipodi:type="star"
       style="opacity:0.95;fill:#000000;stroke:#404040;stroke-width:0;stroke-dasharray:none"
       id="path375"
       inkscape:flatsided="true"
       sodipodi:sides="6"
       sodipodi:cx="60.975819"
       sodipodi:cy="31.119186"
       sodipodi:r1="13.237498"
       sodipodi:r2="11.464011"
       sodipodi:arg1="-0.52359878"
       sodipodi:arg2="0"
       inkscape:rounded="0"
       inkscape:randomized="0"
       d="m 72.439828,24.500437 0,13.237498 -11.464009,6.61875 -11.46401,-6.618749 0,-13.237499 11.46401,-6.618749 z"
       transform="matrix(0.26171184,0,0,0.26171184,58.317477,56.53337)" />
    <path
       sodipodi:type="star"
       style="opacity:0.95;fill:#000000;stroke:#404040;stroke-width:0;stroke-dasharray:none"
       id="path1202"
       inkscape:flatsided="true"
       sodipodi:sides="6"
       sodipodi:cx="60.975819"
       sodipodi:cy="31.119186"
       sodipodi:r1="13.237498"
       sodipodi:r2="11.464011"
       sodipodi:arg1="-0.52359878"
       sodipodi:arg2="0"
       inkscape:rounded="0"
       inkscape:randomized="0"
       d="m 72.439828,24.500437 0,13.237498 -11.464009,6.61875 -11.46401,-6.618749 0,-13.237499 11.46401,-6.618749 z"
       transform="matrix(0.26171184,0,0,0.26171184,41.006216,66.533664)" />
    <path
       sodipodi:type="star"
       style="opacity:0.95;fill:#000000;stroke:#404040;stroke-width:0;stroke-dasharray:none"
       id="path1204"
       inkscape:flatsided="true"
       sodipodi:sides="6"
       sodipodi:cx="60.975819"
       sodipodi:cy="31.119186"
       sodipodi:r1="13.237498"
       sodipodi:r2="11.464011"
       sodipodi:arg1="-0.52359878"
       sodipodi:arg2="0"
       inkscape:rounded="0"
       inkscape:randomized="0"
       d="m 72.439828,24.500437 0,13.237498 -11.464009,6.61875 -11.46401,-6.618749 0,-13.237499 11.46401,-6.618749 z"
       transform="matrix(0.26171184,0,0,0.26171184,52.538162,66.533664)" />
    <path
       sodipodi:type="star"
       style="opacity:0.95;fill:#000000;stroke:#404040;stroke-width:0;stroke-dasharray:none"
       id="path1210"
       inkscape:flatsided="true"
       sodipodi:sides="6"
       sodipodi:cx="60.975819"
       sodipodi:cy="31.119186"
       sodipodi:r1="13.237498"
       sodipodi:r2="11.464011"
       sodipodi:arg1="-0.52359878"
       sodipodi:arg2="0"
       inkscape:rounded="0"
       inkscape:randomized="0"
       d="m 72.439828,24.500437 0,13.237498 -11.464009,6.61875 -11.46401,-6.618749 0,-13.237499 11.46401,-6.618749 z"
       transform="matrix(0.26171184,0,0,0.26171184,64.07746,66.533664)" />
    <path
       sodipodi:type="star"
       style="opacity:0.95;fill:#000000;stroke:#404040;stroke-width:0;stroke-dasharray:none"
       id="path1224"
       inkscape:flatsided="true"
       sodipodi:sides="6"
       sodipodi:cx="60.975819"
       sodipodi:cy="31.119186"
       sodipodi:r1="13.237498"
       sodipodi:r2="11.464011"
       sodipodi:arg1="-0.52359878"
       sodipodi:arg2="0"
       inkscape:rounded="0"
       inkscape:randomized="0"
       d="m 72.439828,24.500437 0,13.237498 -11.464009,6.61875 -11.46401,-6.618749 0,-13.237499 11.46401,-6.618749 z"
       transform="matrix(0.26171184,0,0,0.26171184,35.231909,76.533664)" />
    <path
       sodipodi:type="star"
       style="opacity:0.95;fill:#000000;stroke:#404040;stroke-width:0;stroke-dasharray:none"
       id="path1226"
       inkscape:flatsided="true"
       sodipodi:sides="6"
       sodipodi:cx="60.975819"
       sodipodi:cy="31.119186"
       sodipodi:r1="13.237498"
       sodipodi:r2="11.464011"
       sodipodi:arg1="-0.52359878"
       sodipodi:arg2="0"
       inkscape:rounded="0"
       inkscape:randomized="0"
       d="m 72.439828,24.500437 0,13.237498 -11.464009,6.61875 -11.46401,-6.618749 0,-13.237499 11.46401,-6.618749 z"
       transform="matrix(0.26171184,0,0,0.26171184,46.763855,76.533664)" />
    <path
       sodipodi:type="star"
       style="opacity:0.95;fill:#000000;stroke:#404040;stroke-width:0;stroke-dasharray:none"
       id="path1228"
       inkscape:flatsided="true"
       sodipodi:sides="6"
       sodipodi:cx="60.975819"
       sodipodi:cy="31.119186"
       sodipodi:r1="13.237498"
       sodipodi:r2="11.464011"
       sodipodi:arg1="-0.52359878"
       sodipodi:arg2="0"
       inkscape:rounded="0"
       inkscape:randomized="0"
       d="m 72.439828,24.500437 0,13.237498 -11.464009,6.61875 -11.46401,-6.618749 0,-13.237499 11.46401,-6.618749 z"
       transform="matrix(0.26171184,0,0,0.26171184,58.320709,76.533664)" />
    <path
       sodipodi:type="star"
       style="opacity:0.95;fill:#000000;stroke:#404040;stroke-width:0;stroke-dasharray:none"
       id="path1230"
       inkscape:flatsided="true"
       sodipodi:sides="6"
       sodipodi:cx="60.975819"
       sodipodi:cy="31.119186"
       sodipodi:r1="13.237498"
       sodipodi:r2="11.464011"
       sodipodi:arg1="-0.52359878"
       sodipodi:arg2="0"
       inkscape:rounded="0"
       inkscape:randomized="0"
       d="m 72.439828,24.500437 0,13.237498 -11.464009,6.61875 -11.46401,-6.618749 0,-13.237499 11.46401,-6.618749 z"
       transform="matrix(0.26171184,0,0,0.26171184,69.852655,76.533664)" />
    <path
       sodipodi:type="star"
       style="opacity:0.95;fill:#000000;stroke:#404040;stroke-width:0;stroke-dasharray:none"
       id="path1232"
       inkscape:flatsided="true"
       sodipodi:sides="6"
       sodipodi:cx="60.975819"
       sodipodi:cy="31.119186"
       sodipodi:r1="13.237498"
       sodipodi:r2="11.464011"
       sodipodi:arg1="-0.52359878"
       sodipodi:arg2="0"
       inkscape:rounded="0"
       inkscape:randomized="0"
       d="m 72.439828,24.500437 0,13.237498 -11.464009,6.61875 -11.46401,-6.618749 0,-13.237499 11.46401,-6.618749 z"
       transform="matrix(0.26171184,0,0,0.26171184,29.453292,86.533664)" />
    <path
       sodipodi:type="star"
       style="opacity:0.95;fill:#000000;stroke:#404040;stroke-width:0;stroke-dasharray:none"
       id="path1234"
       inkscape:flatsided="true"
       sodipodi:sides="6"
       sodipodi:cx="60.975819"
       sodipodi:cy="31.119186"
       sodipodi:r1="13.237498"
       sodipodi:r2="11.464011"
       sodipodi:arg1="-0.52359878"
       sodipodi:arg2="0"
       inkscape:rounded="0"
       inkscape:randomized="0"
       d="m 72.439828,24.500437 0,13.237498 -11.464009,6.61875 -11.46401,-6.618749 0,-13.237499 11.46401,-6.618749 z"
       transform="matrix(0.26171184,0,0,0.26171184,40.985238,86.533664)" />
    <path
       sodipodi:type="star"
       style="opacity:0.95;fill:#000000;stroke:#404040;stroke-width:0;stroke-dasharray:none"
       id="path1236"
       inkscape:flatsided="true"
       sodipodi:sides="6"
       sodipodi:cx="60.975819"
       sodipodi:cy="31.119186"
       sodipodi:r1="13.237498"
       sodipodi:r2="11.464011"
       sodipodi:arg1="-0.52359878"
       sodipodi:arg2="0"
       inkscape:rounded="0"
       inkscape:randomized="0"
       d="m 72.439828,24.500437 0,13.237498 -11.464009,6.61875 -11.46401,-6.618749 0,-13.237499 11.46401,-6.618749 z"
       transform="matrix(0.26171184,0,0,0.26171184,52.542092,86.533664)" />
    <path
       sodipodi:type="star"
       style="opacity:0.95;fill:#000000;stroke:#404040;stroke-width:0;stroke-dasharray:none"
       id="path1238"
       inkscape:flatsided="true"
       sodipodi:sides="6"
       sodipodi:cx="60.975819"
       sodipodi:cy="31.119186"
       sodipodi:r1="13.237498"
       sodipodi:r2="11.464011"
       sodipodi:arg1="-0.52359878"
       sodipodi:arg2="0"
       inkscape:rounded="0"
       inkscape:randomized="0"
       d="m 72.439828,24.500437 0,13.237498 -11.464009,6.61875 -11.46401,-6.618749 0,-13.237499 11.46401,-6.618749 z"
       transform="matrix(0.26171184,0,0,0.26171184,64.074038,86.533664)" />
    <path
       sodipodi:type="star"
       style="opacity:0.95;fill:#000000;stroke:#404040;stroke-width:0;stroke-dasharray:none"
       id="path1240"
       inkscape:flatsided="true"
       sodipodi:sides="6"
       sodipodi:cx="60.975819"
       sodipodi:cy="31.119186"
       sodipodi:r1="13.237498"
       sodipodi:r2="11.464011"
       sodipodi:arg1="-0.52359878"
       sodipodi:arg2="0"
       inkscape:rounded="0"
       inkscape:randomized="0"
       d="m 72.439828,24.500437 0,13.237498 -11.464009,6.61875 -11.46401,-6.618749 0,-13.237499 11.46401,-6.618749 z"
       transform="matrix(0.26171184,0,0,0.26171184,75.624041,86.533664)" />
    <path
       sodipodi:type="star"
       style="opacity:0.95;fill:#000000;stroke:#404040;stroke-width:0;stroke-dasharray:none"
       id="path1242"
       inkscape:flatsided="true"
       sodipodi:sides="6"
       sodipodi:cx="60.975819"
       sodipodi:cy="31.119186"
       sodipodi:r1="13.237498"
       sodipodi:r2="11.464011"
       sodipodi:arg1="-0.52359878"
       sodipodi:arg2="0"
       inkscape:rounded="0"
       inkscape:randomized="0"
       d="m 72.439828,24.500437 0,13.237498 -11.464009,6.61875 -11.46401,-6.618749 0,-13.237499 11.46401,-6.618749 z"
       transform="matrix(0.26171184,0,0,0.26171184,23.684155,96.533664)" />
    <path
       sodipodi:type="star"
       style="opacity:0.95;fill:#000000;stroke:#404040;stroke-width:0;stroke-dasharray:none"
       id="path1244"
       inkscape:flatsided="true"
       sodipodi:sides="6"
       sodipodi:cx="60.975819"
       sodipodi:cy="31.119186"
       sodipodi:r1="13.237498"
       sodipodi:r2="11.464011"
       sodipodi:arg1="-0.52359878"
       sodipodi:arg2="0"
       inkscape:rounded="0"
       inkscape:randomized="0"
       d="m 72.439828,24.500437 0,13.237498 -11.464009,6.61875 -11.46401,-6.618749 0,-13.237499 11.46401,-6.618749 z"
       transform="matrix(0.26171184,0,0,0.26171184,35.216101,96.533664)" />
    <path
       sodipodi:type="star"
       style="opacity:0.95;fill:#000000;stroke:#404040;stroke-width:0;stroke-dasharray:none"
       id="path1246"
       inkscape:flatsided="true"
       sodipodi:sides="6"
       sodipodi:cx="60.975819"
       sodipodi:cy="31.119186"
       sodipodi:r1="13.237498"
       sodipodi:r2="11.464011"
       sodipodi:arg1="-0.52359878"
       sodipodi:arg2="0"
       inkscape:rounded="0"
       inkscape:randomized="0"
       d="m 72.439828,24.500437 0,13.237498 -11.464009,6.61875 -11.46401,-6.618749 0,-13.237499 11.46401,-6.618749 z"
       transform="matrix(0.26171184,0,0,0.26171184,46.772955,96.533664)" />
    <path
       sodipodi:type="star"
       style="opacity:0.95;fill:#000000;stroke:#404040;stroke-width:0;stroke-dasharray:none"
       id="path1248"
       inkscape:flatsided="true"
       sodipodi:sides="6"
       sodipodi:cx="60.975819"
       sodipodi:cy="31.119186"
       sodipodi:r1="13.237498"
       sodipodi:r2="11.464011"
       sodipodi:arg1="-0.52359878"
       sodipodi:arg2="0"
       inkscape:rounded="0"
       inkscape:randomized="0"
       d="m 72.439828,24.500437 0,13.237498 -11.464009,6.61875 -11.46401,-6.618749 0,-13.237499 11.46401,-6.618749 z"
       transform="matrix(0.26171184,0,0,0.26171184,58.304901,96.533664)" />
    <path
       sodipodi:type="star"
       style="opacity:0.95;fill:#000000;stroke:#404040;stroke-width:0;stroke-dasharray:none"
       id="path1250"
       inkscape:flatsided="true"
       sodipodi:sides="6"
       sodipodi:cx="60.975819"
       sodipodi:cy="31.119186"
       sodipodi:r1="13.237498"
       sodipodi:r2="11.464011"
       sodipodi:arg1="-0.52359878"
       sodipodi:arg2="0"
       inkscape:rounded="0"
       inkscape:randomized="0"
       d="m 72.439828,24.500437 0,13.237498 -11.464009,6.61875 -11.46401,-6.618749 0,-13.237499 11.46401,-6.618749 z"
       transform="matrix(0.26171184,0,0,0.26171184,69.854904,96.533664)" />
    <path
       sodipodi:type="star"
       style="opacity:0.95;fill:#000000;stroke:#404040;stroke-width:0;stroke-dasharray:none"
       id="path1252"
       inkscape:flatsided="true"
       sodipodi:sides="6"
       sodipodi:cx="60.975819"
       sodipodi:cy="31.119186"
       sodipodi:r1="13.237498"
       sodipodi:r2="11.464011"
       sodipodi:arg1="-0.52359878"
       sodipodi:arg2="0"
       inkscape:rounded="0"
       inkscape:randomized="0"
       d="m 72.439828,24.500437 0,13.237498 -11.464009,6.61875 -11.46401,-6.618749 0,-13.237499 11.46401,-6.618749 z"
       transform="matrix(0.26171184,0,0,0.26171184,81.404691,96.533664)" />
    <path
       sodipodi:type="star"
       style="opacity:0.95;fill:#000000;stroke:#404040;stroke-width:0;stroke-dasharray:none"
       id="path1254"
       inkscape:flatsided="true"
       sodipodi:sides="6"
       sodipodi:cx="60.975819"
       sodipodi:cy="31.119186"
       sodipodi:r1="13.237498"
       sodipodi:r2="11.464011"
       sodipodi:arg1="-0.52359878"
       sodipodi:arg2="0"
       inkscape:rounded="0"
       inkscape:randomized="0"
       d="m 72.439828,24.500437 0,13.237498 -11.464009,6.61875 -11.46401,-6.618749 0,-13.237499 11.46401,-6.618749 z"
       transform="matrix(0.26171184,0,0,0.26171184,17.910882,106.53366)" />
    <path
       sodipodi:type="star"
       style="opacity:0.95;fill:#000000;stroke:#404040;stroke-width:0;stroke-dasharray:none"
       id="path1256"
       inkscape:flatsided="true"
       sodipodi:sides="6"
       sodipodi:cx="60.975819"
       sodipodi:cy="31.119186"
       sodipodi:r1="13.237498"
       sodipodi:r2="11.464011"
       sodipodi:arg1="-0.52359878"
       sodipodi:arg2="0"
       inkscape:rounded="0"
       inkscape:randomized="0"
       d="m 72.439828,24.500437 0,13.237498 -11.464009,6.61875 -11.46401,-6.618749 0,-13.237499 11.46401,-6.618749 z"
       transform="matrix(0.26171184,0,0,0.26171184,29.442828,106.53366)" />
    <path
       sodipodi:type="star"
       style="opacity:0.95;fill:#000000;stroke:#404040;stroke-width:0;stroke-dasharray:none"
       id="path1258"
       inkscape:flatsided="true"
       sodipodi:sides="6"
       sodipodi:cx="60.975819"
       sodipodi:cy="31.119186"
       sodipodi:r1="13.237498"
       sodipodi:r2="11.464011"
       sodipodi:arg1="-0.52359878"
       sodipodi:arg2="0"
       inkscape:rounded="0"
       inkscape:randomized="0"
       d="m 72.439828,24.500437 0,13.237498 -11.464009,6.61875 -11.46401,-6.618749 0,-13.237499 11.46401,-6.618749 z"
       transform="matrix(0.26171184,0,0,0.26171184,40.999682,106.53366)" />
    <path
       sodipodi:type="star"
       style="opacity:0.95;fill:#000000;stroke:#404040;stroke-width:0;stroke-dasharray:none"
       id="path1260"
       inkscape:flatsided="true"
       sodipodi:sides="6"
       sodipodi:cx="60.975819"
       sodipodi:cy="31.119186"
       sodipodi:r1="13.237498"
       sodipodi:r2="11.464011"
       sodipodi:arg1="-0.52359878"
       sodipodi:arg2="0"
       inkscape:rounded="0"
       inkscape:randomized="0"
       d="m 72.439828,24.500437 0,13.237498 -11.464009,6.61875 -11.46401,-6.618749 0,-13.237499 11.46401,-6.618749 z"
       transform="matrix(0.26171184,0,0,0.26171184,52.531628,106.53366)" />
    <path
       sodipodi:type="star"
       style="opacity:0.95;fill:#000000;stroke:#404040;stroke-width:0;stroke-dasharray:none"
       id="path1262"
       inkscape:flatsided="true"
       sodipodi:sides="6"
       sodipodi:cx="60.975819"
       sodipodi:cy="31.119186"
       sodipodi:r1="13.237498"
       sodipodi:r2="11.464011"
       sodipodi:arg1="-0.52359878"
       sodipodi:arg2="0"
       inkscape:rounded="0"
       inkscape:randomized="0"
       d="m 72.439828,24.500437 0,13.237498 -11.464009,6.61875 -11.46401,-6.618749 0,-13.237499 11.46401,-6.618749 z"
       transform="matrix(0.26171184,0,0,0.26171184,64.081631,106.53366)" />
    <path
       sodipodi:type="star"
       style="opacity:0.95;fill:#000000;stroke:#404040;stroke-width:0;stroke-dasharray:none"
       id="path1264"
       inkscape:flatsided="true"
       sodipodi:sides="6"
       sodipodi:cx="60.975819"
       sodipodi:cy="31.119186"
       sodipodi:r1="13.237498"
       sodipodi:r2="11.464011"
       sodipodi:arg1="-0.52359878"
       sodipodi:arg2="0"
       inkscape:rounded="0"
       inkscape:randomized="0"
       d="m 72.439828,24.500437 0,13.237498 -11.464009,6.61875 -11.46401,-6.618749 0,-13.237499 11.46401,-6.618749 z"
       transform="matrix(0.26171184,0,0,0.26171184,75.631201,106.53366)" />
    <path
       sodipodi:type="star"
       style="opacity:0.95;fill:#000000;stroke:#404040;stroke-width:0;stroke-dasharray:none"
       id="path1300"
       inkscape:flatsided="true"
       sodipodi:sides="6"
       sodipodi:cx="60.975819"
       sodipodi:cy="31.119186"
       sodipodi:r1="13.237498"
       sodipodi:r2="11.464011"
       sodipodi:arg1="-0.52359878"
       sodipodi:arg2="0"
       inkscape:rounded="0"
       inkscape:randomized="0"
       d="m 72.439828,24.500437 0,13.237498 -11.464009,6.61875 -11.46401,-6.618749 0,-13.237499 11.46401,-6.618749 z"
       transform="matrix(0.26171184,0,0,0.26171184,87.170971,106.53366)" />
    <path
       sodipodi:type="star"
       style="opacity:0.95;fill:#000000;stroke:#404040;stroke-width:0;stroke-dasharray:none"
       id="path1302"
       inkscape:flatsided="true"
       sodipodi:sides="6"
       sodipodi:cx="60.975819"
       sodipodi:cy="31.119186"
       sodipodi:r1="13.237498"
       sodipodi:r2="11.464011"
       sodipodi:arg1="-0.52359878"
       sodipodi:arg2="0"
       inkscape:rounded="0"
       inkscape:randomized="0"
       d="m 72.439828,24.500437 0,13.237498 -11.464009,6.61875 -11.46401,-6.618749 0,-13.237499 11.46401,-6.618749 z"
       transform="matrix(0.26171184,0,0,0.26171184,12.137609,116.53366)" />
    <path
       sodipodi:type="star"
       style="opacity:0.95;fill:#000000;stroke:#404040;stroke-width:0;stroke-dasharray:none"
       id="path1304"
       inkscape:flatsided="true"
       sodipodi:sides="6"
       sodipodi:cx="60.975819"
       sodipodi:cy="31.119186"
       sodipodi:r1="13.237498"
       sodipodi:r2="11.464011"
       sodipodi:arg1="-0.52359878"
       sodipodi:arg2="0"
       inkscape:rounded="0"
       inkscape:randomized="0"
       d="m 72.439828,24.500437 0,13.237498 -11.464009,6.61875 -11.46401,-6.618749 0,-13.237499 11.46401,-6.618749 z"
       transform="matrix(0.26171184,0,0,0.26171184,23.669555,116.53366)" />
    <path
       sodipodi:type="star"
       style="opacity:0.95;fill:#000000;stroke:#404040;stroke-width:0;stroke-dasharray:none"
       id="path1306"
       inkscape:flatsided="true"
       sodipodi:sides="6"
       sodipodi:cx="60.975819"
       sodipodi:cy="31.119186"
       sodipodi:r1="13.237498"
       sodipodi:r2="11.464011"
       sodipodi:arg1="-0.52359878"
       sodipodi:arg2="0"
       inkscape:rounded="0"
       inkscape:randomized="0"
       d="m 72.439828,24.500437 0,13.237498 -11.464009,6.61875 -11.46401,-6.618749 0,-13.237499 11.46401,-6.618749 z"
       transform="matrix(0.26171184,0,0,0.26171184,35.226409,116.53366)" />
    <path
       sodipodi:type="star"
       style="opacity:0.95;fill:#000000;stroke:#404040;stroke-width:0;stroke-dasharray:none"
       id="path1308"
       inkscape:flatsided="true"
       sodipodi:sides="6"
       sodipodi:cx="60.975819"
       sodipodi:cy="31.119186"
       sodipodi:r1="13.237498"
       sodipodi:r2="11.464011"
       sodipodi:arg1="-0.52359878"
       sodipodi:arg2="0"
       inkscape:rounded="0"
       inkscape:randomized="0"
       d="m 72.439828,24.500437 0,13.237498 -11.464009,6.61875 -11.46401,-6.618749 0,-13.237499 11.46401,-6.618749 z"
       transform="matrix(0.26171184,0,0,0.26171184,46.758355,116.53366)" />
    <path
       sodipodi:type="star"
       style="opacity:0.95;fill:#000000;stroke:#404040;stroke-width:0;stroke-dasharray:none"
       id="path1310"
       inkscape:flatsided="true"
       sodipodi:sides="6"
       sodipodi:cx="60.975819"
       sodipodi:cy="31.119186"
       sodipodi:r1="13.237498"
       sodipodi:r2="11.464011"
       sodipodi:arg1="-0.52359878"
       sodipodi:arg2="0"
       inkscape:rounded="0"
       inkscape:randomized="0"
       d="m 72.439828,24.500437 0,13.237498 -11.464009,6.61875 -11.46401,-6.618749 0,-13.237499 11.46401,-6.618749 z"
       transform="matrix(0.26171184,0,0,0.26171184,58.308358,116.53366)" />
    <path
       sodipodi:type="star"
       style="opacity:0.95;fill:#000000;stroke:#404040;stroke-width:0;stroke-dasharray:none"
       id="path1312"
       inkscape:flatsided="true"
       sodipodi:sides="6"
       sodipodi:cx="60.975819"
       sodipodi:cy="31.119186"
       sodipodi:r1="13.237498"
       sodipodi:r2="11.464011"
       sodipodi:arg1="-0.52359878"
       sodipodi:arg2="0"
       inkscape:rounded="0"
       inkscape:randomized="0"
       d="m 72.439828,24.500437 0,13.237498 -11.464009,6.61875 -11.46401,-6.618749 0,-13.237499 11.46401,-6.618749 z"
       transform="matrix(0.26171184,0,0,0.26171184,69.857928,116.53366)" />
    <path
       sodipodi:type="star"
       style="opacity:0.95;fill:#000000;stroke:#404040;stroke-width:0;stroke-dasharray:none"
       id="path1314"
       inkscape:flatsided="true"
       sodipodi:sides="6"
       sodipodi:cx="60.975819"
       sodipodi:cy="31.119186"
       sodipodi:r1="13.237498"
       sodipodi:r2="11.464011"
       sodipodi:arg1="-0.52359878"
       sodipodi:arg2="0"
       inkscape:rounded="0"
       inkscape:randomized="0"
       d="m 72.439828,24.500437 0,13.237498 -11.464009,6.61875 -11.46401,-6.618749 0,-13.237499 11.46401,-6.618749 z"
       transform="matrix(0.26171184,0,0,0.26171184,81.397481,116.53366)" />
    <path
       sodipodi:type="star"
       style="opacity:0.95;fill:#000000;stroke:#404040;stroke-width:0;stroke-dasharray:none"
       id="path1316"
       inkscape:flatsided="true"
       sodipodi:sides="6"
       sodipodi:cx="60.975819"
       sodipodi:cy="31.119186"
       sodipodi:r1="13.237498"
       sodipodi:r2="11.464011"
       sodipodi:arg1="-0.52359878"
       sodipodi:arg2="0"
       inkscape:rounded="0"
       inkscape:randomized="0"
       d="m 72.439828,24.500437 0,13.237498 -11.464009,6.61875 -11.46401,-6.618749 0,-13.237499 11.46401,-6.618749 z"
       transform="matrix(0.26171184,0,0,0.26171184,92.94446,116.53366)" />
    <path
       sodipodi:type="star"
       style="opacity:0.95;fill:#000000;stroke:#404040;stroke-width:0;stroke-dasharray:none"
       id="path1318"
       inkscape:flatsided="true"
       sodipodi:sides="6"
       sodipodi:cx="60.975819"
       sodipodi:cy="31.119186"
       sodipodi:r1="13.237498"
       sodipodi:r2="11.464011"
       sodipodi:arg1="-0.52359878"
       sodipodi:arg2="0"
       inkscape:rounded="0"
       inkscape:randomized="0"
       d="m 72.439828,24.500437 0,13.237498 -11.464009,6.61875 -11.46401,-6.618749 0,-13.237499 11.46401,-6.618749 z"
       transform="matrix(0.26171184,0,0,0.26171184,6.3643352,126.53366)" />
    <path
       sodipodi:type="star"
       style="opacity:0.95;fill:#000000;stroke:#404040;stroke-width:0;stroke-dasharray:none"
       id="path1320"
       inkscape:flatsided="true"
       sodipodi:sides="6"
       sodipodi:cx="60.975819"
       sodipodi:cy="31.119186"
       sodipodi:r1="13.237498"
       sodipodi:r2="11.464011"
       sodipodi:arg1="-0.52359878"
       sodipodi:arg2="0"
       inkscape:rounded="0"
       inkscape:randomized="0"
       d="m 72.439828,24.500437 0,13.237498 -11.464009,6.61875 -11.46401,-6.618749 0,-13.237499 11.46401,-6.618749 z"
       transform="matrix(0.26171184,0,0,0.26171184,17.896282,126.53366)" />
    <path
       sodipodi:type="star"
       style="opacity:0.95;fill:#000000;stroke:#404040;stroke-width:0;stroke-dasharray:none"
       id="path1322"
       inkscape:flatsided="true"
       sodipodi:sides="6"
       sodipodi:cx="60.975819"
       sodipodi:cy="31.119186"
       sodipodi:r1="13.237498"
       sodipodi:r2="11.464011"
       sodipodi:arg1="-0.52359878"
       sodipodi:arg2="0"
       inkscape:rounded="0"
       inkscape:randomized="0"
       d="m 72.439828,24.500437 0,13.237498 -11.464009,6.61875 -11.46401,-6.618749 0,-13.237499 11.46401,-6.618749 z"
       transform="matrix(0.26171184,0,0,0.26171184,29.453136,126.53366)" />
    <path
       sodipodi:type="star"
       style="opacity:0.95;fill:#000000;stroke:#404040;stroke-width:0;stroke-dasharray:none"
       id="path1324"
       inkscape:flatsided="true"
       sodipodi:sides="6"
       sodipodi:cx="60.975819"
       sodipodi:cy="31.119186"
       sodipodi:r1="13.237498"
       sodipodi:r2="11.464011"
       sodipodi:arg1="-0.52359878"
       sodipodi:arg2="0"
       inkscape:rounded="0"
       inkscape:randomized="0"
       d="m 72.439828,24.500437 0,13.237498 -11.464009,6.61875 -11.46401,-6.618749 0,-13.237499 11.46401,-6.618749 z"
       transform="matrix(0.26171184,0,0,0.26171184,40.985082,126.53366)" />
    <path
       sodipodi:type="star"
       style="opacity:0.95;fill:#000000;stroke:#404040;stroke-width:0;stroke-dasharray:none"
       id="path1326"
       inkscape:flatsided="true"
       sodipodi:sides="6"
       sodipodi:cx="60.975819"
       sodipodi:cy="31.119186"
       sodipodi:r1="13.237498"
       sodipodi:r2="11.464011"
       sodipodi:arg1="-0.52359878"
       sodipodi:arg2="0"
       inkscape:rounded="0"
       inkscape:randomized="0"
       d="m 72.439828,24.500437 0,13.237498 -11.464009,6.61875 -11.46401,-6.618749 0,-13.237499 11.46401,-6.618749 z"
       transform="matrix(0.26171184,0,0,0.26171184,52.535085,126.53366)" />
    <path
       sodipodi:type="star"
       style="opacity:0.95;fill:#000000;stroke:#404040;stroke-width:0;stroke-dasharray:none"
       id="path1328"
       inkscape:flatsided="true"
       sodipodi:sides="6"
       sodipodi:cx="60.975819"
       sodipodi:cy="31.119186"
       sodipodi:r1="13.237498"
       sodipodi:r2="11.464011"
       sodipodi:arg1="-0.52359878"
       sodipodi:arg2="0"
       inkscape:rounded="0"
       inkscape:randomized="0"
       d="m 72.439828,24.500437 0,13.237498 -11.464009,6.61875 -11.46401,-6.618749 0,-13.237499 11.46401,-6.618749 z"
       transform="matrix(0.26171184,0,0,0.26171184,64.084655,126.53366)" />
    <path
       sodipodi:type="star"
       style="opacity:0.95;fill:#000000;stroke:#404040;stroke-width:0;stroke-dasharray:none"
       id="path1330"
       inkscape:flatsided="true"
       sodipodi:sides="6"
       sodipodi:cx="60.975819"
       sodipodi:cy="31.119186"
       sodipodi:r1="13.237498"
       sodipodi:r2="11.464011"
       sodipodi:arg1="-0.52359878"
       sodipodi:arg2="0"
       inkscape:rounded="0"
       inkscape:randomized="0"
       d="m 72.439828,24.500437 0,13.237498 -11.464009,6.61875 -11.46401,-6.618749 0,-13.237499 11.46401,-6.618749 z"
       transform="matrix(0.26171184,0,0,0.26171184,75.623991,126.53366)" />
    <path
       sodipodi:type="star"
       style="opacity:0.95;fill:#000000;stroke:#404040;stroke-width:0;stroke-dasharray:none"
       id="path1332"
       inkscape:flatsided="true"
       sodipodi:sides="6"
       sodipodi:cx="60.975819"
       sodipodi:cy="31.119186"
       sodipodi:r1="13.237498"
       sodipodi:r2="11.464011"
       sodipodi:arg1="-0.52359878"
       sodipodi:arg2="0"
       inkscape:rounded="0"
       inkscape:randomized="0"
       d="m 72.439828,24.500437 0,13.237498 -11.464009,6.61875 -11.46401,-6.618749 0,-13.237499 11.46401,-6.618749 z"
       transform="matrix(0.26171184,0,0,0.26171184,87.170971,126.53366)" />
    <path
       sodipodi:type="star"
       style="opacity:0.95;fill:#000000;stroke:#404040;stroke-width:0;stroke-dasharray:none"
       id="path1334"
       inkscape:flatsided="true"
       sodipodi:sides="6"
       sodipodi:cx="60.975819"
       sodipodi:cy="31.119186"
       sodipodi:r1="13.237498"
       sodipodi:r2="11.464011"
       sodipodi:arg1="-0.52359878"
       sodipodi:arg2="0"
       inkscape:rounded="0"
       inkscape:randomized="0"
       d="m 72.439828,24.500437 0,13.237498 -11.464009,6.61875 -11.46401,-6.618749 0,-13.237499 11.46401,-6.618749 z"
       transform="matrix(0.26171184,0,0,0.26171184,98.718978,126.53366)" />
    <path
       d="M 0,0"
       id="path4204"
       style="fill:#000000;stroke-width:0;stroke-dasharray:none"
       inkscape:original-d="M 0,0"
       inkscape:path-effect="#path-effect4202"
       class="UnoptimicedTransforms" />
    <path
       sodipodi:type="star"
       style="opacity:0.95;fill:#000000;stroke:#404040;stroke-width:0;stroke-dasharray:none"
       id="path17122"
       inkscape:flatsided="true"
       sodipodi:sides="6"
       sodipodi:cx="60.975819"
       sodipodi:cy="31.119186"
       sodipodi:r1="13.237498"
       sodipodi:r2="11.464011"
       sodipodi:arg1="-0.52359878"
       sodipodi:arg2="0"
       inkscape:rounded="0"
       inkscape:randomized="0"
       d="m 72.439828,24.500437 0,13.237498 -11.464009,6.61875 -11.46401,-6.618749 0,-13.237499 11.46401,-6.618749 z"
       transform="matrix(0.26171184,0,0,0.26171184,92.946741,136.53402)" />
    <path
       sodipodi:type="star"
       style="opacity:0.95;fill:#000000;stroke:#404040;stroke-width:0;stroke-dasharray:none"
       id="path17128"
       inkscape:flatsided="true"
       sodipodi:sides="6"
       sodipodi:cx="60.975819"
       sodipodi:cy="31.119186"
       sodipodi:r1="13.237498"
       sodipodi:r2="11.464011"
       sodipodi:arg1="-0.52359878"
       sodipodi:arg2="0"
       inkscape:rounded="0"
       inkscape:randomized="0"
       d="m 72.439828,24.500437 0,13.237498 -11.464009,6.61875 -11.46401,-6.618749 0,-13.237499 11.46401,-6.618749 z"
       transform="matrix(0.26171184,0,0,0.26171184,104.49018,136.53402)" />
    <path
       id="path1336"
       style="opacity:0.95;fill:#000000;stroke:#404040;stroke-width:0;stroke-dasharray:none"
       d="M 6.6047648 0 C 2.9457185 0 -1.8799758e-15 3.794001 0 8.5069743 L 0 191.4927 C 0 196.20568 2.9457185 200.0002 6.6047648 200.0002 L 130.39514 200.0002 C 134.05421 200.0002 136.99991 196.20568 136.99991 191.4927 L 136.99991 8.5069743 C 136.99991 3.794001 134.05421 1.2533172e-15 130.39514 0 L 6.6047648 0 z M 11.114567 5.0849609 L 125.88689 5.0849609 C 128.14802 5.0849609 130.11048 6.4704445 131.17132 8.5353963 L 74.276086 41.212988 C 71.273045 42.946727 72.24586 44.625908 74.276086 48.141764 L 77.045943 52.939404 L 77.035091 52.945605 L 77.035091 56.409993 L 80.035425 58.142187 L 80.046277 58.135986 L 82.819751 62.939827 L 82.810449 62.945512 L 82.810449 66.4099 L 85.810783 68.142094 L 85.820085 68.136926 L 88.593042 72.939217 L 88.581673 72.945935 L 88.581673 76.410323 L 91.582007 78.142517 L 91.593376 78.135799 L 94.3684 82.942741 L 94.362716 82.945841 L 94.362716 86.410229 L 97.362533 88.142424 L 97.368217 88.138806 L 100.14014 92.939547 L 100.12877 92.945748 L 100.12877 96.410136 L 103.12911 98.14233 L 103.13996 98.136129 L 105.91343 102.93894 L 105.90206 102.94565 L 105.90206 106.41004 L 108.9024 108.14224 L 108.91377 108.13604 L 111.68724 112.93988 L 111.6769 112.94556 L 111.6769 116.40995 L 114.67724 118.14214 L 114.68757 118.13646 L 117.46001 122.93875 L 117.44813 122.94547 L 117.44813 126.41037 L 120.44846 128.14257 L 120.46035 128.13585 L 123.23434 132.94021 L 123.22504 132.94589 L 123.22504 136.41028 L 126.22485 138.14247 L 126.23467 138.13679 L 129.00608 142.93753 L 128.99058 142.94631 L 128.99058 146.4107 L 131.15582 147.66024 L 131.15582 195.01394 L 132.00796 195.01394 L 132.00796 148.13669 L 132.01055 148.14135 L 132.01055 195.01652 L 4.9909098 194.94314 L 4.9909098 148.14186 L 4.9940104 148.13669 L 4.9940104 194.93384 L 5.8446045 194.93384 L 5.8446045 147.66592 L 8.0181152 146.4107 L 8.0181152 142.94631 L 7.9974447 142.93443 L 10.770402 138.1311 L 10.790039 138.14247 L 13.790373 136.41028 L 13.790373 132.94589 L 13.770736 132.93452 L 16.540592 128.13688 L 16.550411 128.14257 L 19.550228 126.41037 L 19.550228 122.94547 L 19.540926 122.93978 L 22.313367 118.13698 L 22.322668 118.14214 L 25.322485 116.40995 L 25.322485 112.94556 L 25.3137 112.94039 L 28.086658 108.13707 L 28.095959 108.14224 L 31.095776 106.41004 L 31.095776 102.94565 L 31.086991 102.94049 L 33.859949 98.137162 L 33.868734 98.14233 L 36.869067 96.410136 L 36.869067 92.945748 L 36.860282 92.94058 L 39.63324 88.137256 L 39.642025 88.142424 L 42.642358 86.410229 L 42.642358 82.945841 L 42.633573 82.940674 L 45.405497 78.139417 L 45.411182 78.142517 L 48.411515 76.410323 L 48.411515 72.945935 L 48.405831 72.942318 L 51.180339 68.13641 L 51.190157 68.142094 L 54.190491 66.4099 L 54.190491 62.945512 L 54.180672 62.939827 L 56.944328 58.152523 L 56.964482 58.163892 L 59.964815 56.431698 L 59.964815 52.96731 L 59.944661 52.955424 L 62.72382 48.141764 C 64.754036 44.625908 65.726849 42.946727 62.72382 41.212988 L 5.8306519 8.5348796 C 6.8913505 6.4701136 8.8534965 5.0849609 11.114567 5.0849609 z " />
    <path
       sodipodi:type="star"
       style="opacity:0.95;fill:#000000;stroke:#404040;stroke-width:0;stroke-dasharray:none"
       id="path17106"
       inkscape:flatsided="true"
       sodipodi:sides="6"
       sodipodi:cx="60.975819"
       sodipodi:cy="31.119186"
       sodipodi:r1="13.237498"
       sodipodi:r2="11.464011"
       sodipodi:arg1="-0.52359878"
       sodipodi:arg2="0"
       inkscape:rounded="0"
       inkscape:randomized="0"
       d="m 72.439828,24.500437 0,13.237498 -11.464009,6.61875 -11.46401,-6.618749 0,-13.237499 11.46401,-6.618749 z"
       transform="matrix(0.26171184,0,0,0.26171184,0.59207612,136.53402)" />
    <path
       sodipodi:type="star"
       style="opacity:0.95;fill:#000000;stroke:#404040;stroke-width:0;stroke-dasharray:none"
       id="path17108"
       inkscape:flatsided="true"
       sodipodi:sides="6"
       sodipodi:cx="60.975819"
       sodipodi:cy="31.119186"
       sodipodi:r1="13.237498"
       sodipodi:r2="11.464011"
       sodipodi:arg1="-0.52359878"
       sodipodi:arg2="0"
       inkscape:rounded="0"
       inkscape:randomized="0"
       d="m 72.439828,24.500437 0,13.237498 -11.464009,6.61875 -11.46401,-6.618749 0,-13.237499 11.46401,-6.618749 z"
       transform="matrix(0.26171184,0,0,0.26171184,12.124023,136.53402)" />
    <path
       sodipodi:type="star"
       style="opacity:0.95;fill:#000000;stroke:#404040;stroke-width:0;stroke-dasharray:none"
       id="path17110"
       inkscape:flatsided="true"
       sodipodi:sides="6"
       sodipodi:cx="60.975819"
       sodipodi:cy="31.119186"
       sodipodi:r1="13.237498"
       sodipodi:r2="11.464011"
       sodipodi:arg1="-0.52359878"
       sodipodi:arg2="0"
       inkscape:rounded="0"
       inkscape:randomized="0"
       d="m 72.439828,24.500437 0,13.237498 -11.464009,6.61875 -11.46401,-6.618749 0,-13.237499 11.46401,-6.618749 z"
       transform="matrix(0.26171184,0,0,0.26171184,23.680897,136.53402)" />
    <path
       sodipodi:type="star"
       style="opacity:0.95;fill:#000000;stroke:#404040;stroke-width:0;stroke-dasharray:none"
       id="path17112"
       inkscape:flatsided="true"
       sodipodi:sides="6"
       sodipodi:cx="60.975819"
       sodipodi:cy="31.119186"
       sodipodi:r1="13.237498"
       sodipodi:r2="11.464011"
       sodipodi:arg1="-0.52359878"
       sodipodi:arg2="0"
       inkscape:rounded="0"
       inkscape:randomized="0"
       d="m 72.439828,24.500437 0,13.237498 -11.464009,6.61875 -11.46401,-6.618749 0,-13.237499 11.46401,-6.618749 z"
       transform="matrix(0.26171184,0,0,0.26171184,35.212843,136.53402)" />
    <path
       sodipodi:type="star"
       style="opacity:0.95;fill:#000000;stroke:#404040;stroke-width:0;stroke-dasharray:none"
       id="path17114"
       inkscape:flatsided="true"
       sodipodi:sides="6"
       sodipodi:cx="60.975819"
       sodipodi:cy="31.119186"
       sodipodi:r1="13.237498"
       sodipodi:r2="11.464011"
       sodipodi:arg1="-0.52359878"
       sodipodi:arg2="0"
       inkscape:rounded="0"
       inkscape:randomized="0"
       d="m 72.439828,24.500437 0,13.237498 -11.464009,6.61875 -11.46401,-6.618749 0,-13.237499 11.46401,-6.618749 z"
       transform="matrix(0.26171184,0,0,0.26171184,46.762846,136.53402)" />
    <path
       sodipodi:type="star"
       style="opacity:0.95;fill:#000000;stroke:#404040;stroke-width:0;stroke-dasharray:none"
       id="path17116"
       inkscape:flatsided="true"
       sodipodi:sides="6"
       sodipodi:cx="60.975819"
       sodipodi:cy="31.119186"
       sodipodi:r1="13.237498"
       sodipodi:r2="11.464011"
       sodipodi:arg1="-0.52359878"
       sodipodi:arg2="0"
       inkscape:rounded="0"
       inkscape:randomized="0"
       d="m 72.439828,24.500437 0,13.237498 -11.464009,6.61875 -11.46401,-6.618749 0,-13.237499 11.46401,-6.618749 z"
       transform="matrix(0.26171184,0,0,0.26171184,58.312416,136.53402)" />
    <path
       sodipodi:type="star"
       style="opacity:0.95;fill:#000000;stroke:#404040;stroke-width:0;stroke-dasharray:none"
       id="path17118"
       inkscape:flatsided="true"
       sodipodi:sides="6"
       sodipodi:cx="60.975819"
       sodipodi:cy="31.119186"
       sodipodi:r1="13.237498"
       sodipodi:r2="11.464011"
       sodipodi:arg1="-0.52359878"
       sodipodi:arg2="0"
       inkscape:rounded="0"
       inkscape:randomized="0"
       d="m 72.439828,24.500437 0,13.237498 -11.464009,6.61875 -11.46401,-6.618749 0,-13.237499 11.46401,-6.618749 z"
       transform="matrix(0.26171184,0,0,0.26171184,69.851752,136.53402)" />
    <path
       sodipodi:type="star"
       style="opacity:0.95;fill:#000000;stroke:#404040;stroke-width:0;stroke-dasharray:none"
       id="path17120"
       inkscape:flatsided="true"
       sodipodi:sides="6"
       sodipodi:cx="60.975819"
       sodipodi:cy="31.119186"
       sodipodi:r1="13.237498"
       sodipodi:r2="11.464011"
       sodipodi:arg1="-0.52359878"
       sodipodi:arg2="0"
       inkscape:rounded="0"
       inkscape:randomized="0"
       d="m 72.439828,24.500437 0,13.237498 -11.464009,6.61875 -11.46401,-6.618749 0,-13.237499 11.46401,-6.618749 z"
       transform="matrix(0.26171184,0,0,0.26171184,81.398732,136.53402)" />
    <path
       style="fill:#000000;stroke:#000000;stroke-width:0;stroke-linecap:butt;stroke-linejoin:miter;stroke-dasharray:none;stroke-opacity:1"
       d="m 16.432285,146.41574 h 0.822714 v 48.52867 h -1.408998 v -48.52867 z"
       id="path1122" />
    <path
       style="fill:#000000;stroke:#000000;stroke-width:0;stroke-linecap:butt;stroke-linejoin:miter;stroke-dasharray:none;stroke-opacity:1"
       d="m 27.964285,146.41574 h 0.822714 V 194.9518 H 27.378 v -48.53606 z"
       id="path1124" />
    <path
       style="fill:#000000;stroke:#000000;stroke-width:0;stroke-linecap:butt;stroke-linejoin:miter;stroke-dasharray:none;stroke-opacity:1"
       d="M 39.520776,146.41574 H 40.34349 V 194.9518 H 38.934491 V 146.41574 Z"
       id="path1126" />
    <path
       style="fill:#000000;stroke:#000000;stroke-width:0;stroke-linecap:butt;stroke-linejoin:miter;stroke-dasharray:none;stroke-opacity:1"
       d="m 51.052722,146.42274 h 0.822714 v 48.53606 h -1.408999 v -48.53606 z"
       id="path1128" />
    <path
       style="fill:#000000;stroke:#000000;stroke-width:0;stroke-linecap:butt;stroke-linejoin:miter;stroke-dasharray:none;stroke-opacity:1"
       d="m 62.602725,146.41574 h 0.822714 V 194.9518 H 62.01644 v -48.53606 z"
       id="path1130" />
    <path
       style="fill:#000000;stroke:#000000;stroke-width:0;stroke-linecap:butt;stroke-linejoin:miter;stroke-dasharray:none;stroke-opacity:1"
       d="m 74.152295,146.40468 h 0.822714 v 48.53606 H 73.56601 v -48.53606 z"
       id="path1132" />
    <path
       style="fill:#000000;stroke:#000000;stroke-width:0;stroke-linecap:butt;stroke-linejoin:miter;stroke-dasharray:none;stroke-opacity:1"
       d="m 85.691631,146.41574 h 0.822714 v 48.53606 h -1.408999 v -48.53606 z"
       id="path1134" />
    <path
       style="fill:#000000;stroke:#000000;stroke-width:0;stroke-linecap:butt;stroke-linejoin:miter;stroke-dasharray:none;stroke-opacity:1"
       d="m 97.238611,146.41574 h 0.822714 v 48.53606 h -1.408999 v -48.53606 z"
       id="path1136" />
    <path
       style="fill:#000000;stroke:#000000;stroke-width:0;stroke-linecap:butt;stroke-linejoin:miter;stroke-dasharray:none;stroke-opacity:1"
       d="m 108.78661,146.41768 h 0.82272 v 48.53606 h -1.409 v -48.53606 z"
       id="path1138" />
    <path
       style="fill:#000000;stroke:#000000;stroke-width:0;stroke-linecap:butt;stroke-linejoin:miter;stroke-dasharray:none;stroke-opacity:1"
       d="m 120.33006,146.44099 h 0.82272 v 48.53606 h -1.409 v -48.53606 z"
       id="path1140" />
  </g>
</svg>
