<?xml version="1.0" standalone="no"?>
<!DOCTYPE svg PUBLIC "-//W3C//DTD SVG 1.1//EN"
  "http://www.w3.org/Graphics/SVG/1.1/DTD/svg11.dtd">
<svg width="139mm" height="201.99999999999994mm" viewBox="-252 -100.99999999999997 139 201.99999999999994" xmlns="http://www.w3.org/2000/svg" version="1.1">
	<title>svgOutput</title>
	<desc>made with tinkercad</desc>
<path d="M -116.56400299072266 -98.23200225830075 L -115.93000030517578 -97.51399993896482 L -115.37300109863281 -96.69799804687497 L -114.89900207519531 -95.79299926757811 L -114.51699829101562 -94.81099700927733 L -114.29885864257812 -93.9980010986328 L -114.23500061035156 -93.76000213623045 L -114.05999755859375 -92.65000152587889 L -114 -91.4929962158203 L -114 1.1102230246251565e-16 L -114 91.4929962158203 L -114.05999755859375 92.65000152587889 L -114.23500061035156 93.75900268554686 L -114.51699829101562 94.80999755859374 L -114.89900207519531 95.79299926757811 L -115.37300109863281 96.69699859619138 L -115.93000030517578 97.51399993896482 L -116.3617935180664 98.00299835205075 L -116.56400299072266 98.23200225830075 L -117.26599884033203 98.84200286865232 L -118.02899932861328 99.33300018310544 L -118.84500122070312 99.69699859619138 L -119.70600128173828 99.92299652099607 L -120.6050033569336 99.99999999999997 L -123.00299835205078 99.99999999999997 L -131.07200622558594 99.99999999999997 L -244.0030059814453 99.99999999999997 L -244.39500427246094 99.99999999999997 L -245.29400634765625 99.92299652099607 L -246.15499877929688 99.69699859619138 L -246.9709930419922 99.33300018310544 L -247.73399353027344 98.84200286865232 L -248.43600463867188 98.23200225830075 L -249.07000732421875 97.51399993896482 L -249.6269989013672 96.69699859619138 L -250.1009979248047 95.79299926757811 L -250.48300170898438 94.80999755859374 L -250.76499938964844 93.75900268554686 L -250.94000244140625 92.65000152587889 L -251 91.4929962158203 L -251 1.1102230246251565e-16 L -251 -91.4929962158203 L -250.94000244140625 -92.65000152587889 L -250.76499938964844 -93.76000213623045 L -250.48300170898438 -94.81099700927733 L -250.1009979248047 -95.79299926757811 L -249.6269989013672 -96.69799804687497 L -249.07000732421875 -97.51399993896482 L -248.43600463867188 -98.23200225830075 L -248.0030059814453 -98.60825347900388 L -247.73399353027344 -98.84200286865232 L -246.9709930419922 -99.33399963378903 L -246.15499877929688 -99.69699859619138 L -245.9980010986328 -99.73821258544919 L -245.29400634765625 -99.92299652099607 L -244.39500427246094 -99.99999999999997 L -131.07200622558594 -99.99999999999997 L -120.6050033569336 -99.99999999999997 L -119.70600128173828 -99.92299652099607 L -119.00299835205078 -99.73847198486325 L -118.84500122070312 -99.69699859619138 L -118.02899932861328 -99.33399963378903 L -117.26599884033203 -98.84200286865232 L -116.99800109863281 -98.60912322998044 L -116.56400299072266 -98.23200225830075 M -118.30999755859375 -94.04699707031249 L -118 -93.9980010986328 L -117.69000244140625 -94.04699707031249 L -117.41100311279297 -94.18900299072264 L -117.39199829101562 -94.20800018310545 L -117.18900299072266 -94.41100311279295 L -117.0469970703125 -94.69000244140624 L -116.99800109863281 -94.99999999999999 L -117.0469970703125 -95.30999755859374 L -117.18900299072266 -95.58899688720702 L -117.41100311279297 -95.81099700927733 L -117.69000244140625 -95.95300292968749 L -118 -96.00299835205075 L -118.30999755859375 -95.95300292968749 L -118.58899688720703 -95.81099700927733 L -118.78399658203125 -95.61599731445311 L -118.81099700927734 -95.58899688720702 L -118.9530029296875 -95.30999755859374 L -119.00299835205078 -94.99999999999999 L -118.9530029296875 -94.69000244140624 L -118.81099700927734 -94.41100311279295 L -118.78399658203125 -94.38400268554686 L -118.60800170898438 -94.20800018310545 L -118.58899688720703 -94.18900299072264 L -118.30999755859375 -94.04699707031249 M -247.30999755859375 -94.04699707031249 L -247 -93.9980010986328 L -246.69000244140625 -94.04699707031249 L -246.41099548339844 -94.18900299072264 L -246.39199829101562 -94.20800018310545 L -246.18899536132812 -94.41100311279295 L -246.0469970703125 -94.69000244140624 L -245.9980010986328 -94.99999999999999 L -246.0469970703125 -95.30999755859374 L -246.18899536132812 -95.58899688720702 L -246.41099548339844 -95.81099700927733 L -246.69000244140625 -95.95300292968749 L -247 -96.00299835205075 L -247.30999755859375 -95.95300292968749 L -247.58900451660156 -95.81099700927733 L -247.80799865722656 -95.59200286865233 L -247.81100463867188 -95.58899688720702 L -247.9530029296875 -95.30999755859374 L -248.0030059814453 -94.99999999999999 L -247.9530029296875 -94.69000244140624 L -247.81100463867188 -94.41100311279295 L -247.80799865722656 -94.40799713134764 L -247.60800170898438 -94.20800018310545 L -247.58900451660156 -94.18900299072264 L -247.30999755859375 -94.04699707031249 M -122.9530029296875 96.69000244140622 L -123.00299835205078 96.99999999999997 L -122.9530029296875 97.30999755859372 L -122.87999725341797 97.45343017578122 L -122.81099700927734 97.588996887207 L -122.58899688720703 97.81099700927732 L -122.30999755859375 97.95300292968747 L -122 98.00299835205075 L -121.69000244140625 97.95300292968747 L -121.41100311279297 97.81099700927732 L -121.18900299072266 97.588996887207 L -121.0469970703125 97.30999755859372 L -120.99800109863281 96.99999999999997 L -121.0469970703125 96.69000244140622 L -121.18900299072266 96.41100311279294 L -121.34400177001953 96.25599670410153 L -121.41100311279297 96.18900299072263 L -121.69000244140625 96.04699707031247 L -122 95.9980010986328 L -122.30999755859375 96.04699707031247 L -122.58899688720703 96.18900299072263 L -122.65599822998047 96.25599670410153 L -122.81099700927734 96.41100311279294 L -122.87999725341797 96.54656982421872 L -122.9530029296875 96.69000244140622 M -243.81100463867188 97.588996887207 L -243.71200561523438 97.68800354003903 L -243.58900451660156 97.81099700927732 L -243.30999755859375 97.95300292968747 L -243 98.00299835205075 L -242.69000244140625 97.95300292968747 L -242.41099548339844 97.81099700927732 L -242.18899536132812 97.588996887207 L -242.0469970703125 97.30999755859372 L -241.9980010986328 96.99999999999997 L -242.0469970703125 96.69000244140622 L -242.18899536132812 96.41100311279294 L -242.343994140625 96.25599670410153 L -242.41099548339844 96.18900299072263 L -242.69000244140625 96.04699707031247 L -243 95.9980010986328 L -243.30999755859375 96.04699707031247 L -243.58900451660156 96.18900299072263 L -243.656005859375 96.25599670410153 L -243.71200561523438 96.31199645996091 L -243.81100463867188 96.41100311279294 L -243.9530029296875 96.69000244140622 L -244.0030059814453 96.99999999999997 L -243.9530029296875 97.30999755859372 L -243.81100463867188 97.588996887207 z" fill="none" stroke="rgb(255,0,0)" stroke-width="0.001mm" />
</svg>